<?xml version="1.0" standalone="no"?>
<!DOCTYPE svg PUBLIC "-//W3C//DTD SVG 20010904//EN"
 "http://www.w3.org/TR/2001/REC-SVG-20010904/DTD/svg10.dtd">
<svg version="1.0" xmlns="http://www.w3.org/2000/svg"
 width="512.000000pt" height="512.000000pt" viewBox="0 0 512.000000 512.000000"
 preserveAspectRatio="xMidYMid meet">
<metadata>
Created by potrace 1.14, written by Peter Selinger 2001-2017
</metadata>
<g transform="translate(0.000000,512.000000) scale(0.100000,-0.100000)"
fill="#000000" stroke="none">
<path d="M2345 5104 c-24 -10 -67 -15 -106 -14 -44 1 -80 -5 -105 -16 -26 -11
-60 -16 -99 -15 -51 2 -66 -2 -99 -24 -31 -21 -46 -25 -73 -20 -36 7 -108 -19
-132 -48 -9 -11 -29 -17 -58 -17 -54 0 -100 -19 -132 -54 -17 -18 -35 -26 -59
-26 -44 0 -96 -25 -126 -61 -16 -19 -34 -29 -52 -29 -36 0 -106 -42 -123 -73
-9 -17 -28 -29 -56 -36 -49 -12 -90 -42 -110 -81 -8 -16 -26 -31 -42 -35 -41
-10 -92 -52 -110 -91 -11 -22 -28 -37 -48 -44 -39 -13 -81 -56 -90 -93 -5 -18
-18 -32 -39 -41 -39 -16 -80 -64 -96 -111 -6 -19 -16 -35 -21 -35 -24 0 -87
-73 -99 -114 -7 -28 -23 -52 -42 -66 -36 -27 -68 -77 -68 -109 0 -14 -15 -38
-39 -62 -39 -37 -61 -88 -61 -139 0 -15 -9 -31 -21 -38 -26 -17 -58 -87 -59
-130 0 -20 -12 -48 -30 -74 -25 -35 -30 -50 -30 -101 0 -48 -5 -65 -24 -88
-28 -33 -40 -91 -28 -134 6 -23 3 -38 -15 -70 -25 -43 -31 -112 -12 -146 8
-16 5 -30 -12 -65 -18 -38 -20 -56 -15 -107 3 -34 6 -66 7 -72 0 -5 -6 -29
-13 -52 -9 -34 -10 -53 0 -95 15 -62 15 -60 6 -121 -5 -35 -2 -60 12 -95 10
-26 17 -51 15 -57 -9 -31 0 -109 18 -143 12 -24 20 -58 19 -89 0 -50 21 -115
41 -127 6 -4 11 -30 11 -57 0 -51 25 -114 54 -138 10 -8 16 -29 16 -53 0 -49
20 -96 54 -127 15 -14 26 -35 26 -50 0 -37 38 -108 71 -132 19 -13 29 -29 29
-45 0 -36 24 -77 68 -115 22 -19 42 -47 46 -63 10 -41 40 -81 80 -105 21 -13
36 -32 39 -49 8 -39 42 -79 88 -102 25 -13 44 -32 53 -54 16 -38 67 -81 108
-91 16 -4 28 -13 28 -21 0 -26 71 -94 111 -106 24 -7 49 -24 65 -45 31 -41 80
-73 111 -73 13 0 36 -15 55 -36 38 -41 68 -59 119 -68 20 -3 45 -16 55 -28 24
-26 91 -57 125 -58 16 0 40 -12 58 -29 33 -31 111 -56 143 -45 13 4 27 -1 41
-14 30 -29 70 -42 124 -42 30 0 58 -8 82 -22 27 -17 53 -23 101 -24 36 -1 82
-9 103 -18 27 -12 62 -16 110 -15 40 1 91 -4 114 -12 34 -10 51 -11 91 -1 35
9 56 10 76 2 37 -14 83 -12 131 5 29 10 50 12 81 5 32 -7 55 -6 95 7 30 9 86
17 126 17 58 1 77 5 102 24 24 18 39 21 65 17 42 -8 105 9 142 37 17 14 38 21
55 19 34 -3 107 28 133 58 12 13 31 21 53 21 44 0 92 21 122 54 14 15 35 26
50 26 39 1 104 33 132 67 16 20 39 33 65 37 28 6 52 21 86 56 25 27 67 57 92
69 30 13 56 35 78 65 18 26 40 46 50 46 24 0 93 63 108 99 6 16 24 34 40 41
37 15 76 57 94 102 9 20 24 39 35 43 30 9 79 70 92 115 7 22 20 42 30 45 28 9
67 62 80 108 7 23 27 58 45 77 37 39 64 96 64 135 0 14 7 28 15 31 22 9 62 82
71 129 4 22 19 55 35 72 32 37 51 96 43 130 -4 15 0 30 9 41 30 33 49 94 43
135 -5 29 -2 44 13 63 25 31 36 99 24 144 -7 28 -5 42 10 67 14 25 18 50 17
110 0 43 2 106 6 141 3 35 1 75 -5 92 -7 23 -6 36 4 57 20 38 19 82 -5 127
-14 28 -17 44 -10 57 16 28 12 97 -7 132 -11 20 -17 56 -18 97 0 51 -5 73 -25
105 -18 29 -25 54 -25 96 -1 45 -7 66 -30 100 -22 34 -28 54 -26 86 3 46 -15
86 -53 122 -20 19 -26 34 -26 66 0 31 -8 53 -30 83 -17 23 -35 42 -40 42 -6 0
-10 11 -10 25 0 41 -24 88 -62 121 -22 19 -39 46 -47 76 -13 46 -43 86 -86
114 -12 8 -26 27 -30 42 -10 40 -52 91 -90 109 -22 11 -35 25 -39 44 -7 35
-58 93 -96 109 -18 7 -37 27 -47 47 -18 39 -85 93 -114 93 -12 0 -26 15 -39
39 -22 44 -61 76 -106 87 -16 4 -46 26 -67 50 -30 34 -48 45 -91 55 -38 8 -58
18 -66 34 -17 31 -81 65 -122 65 -24 0 -42 8 -59 26 -33 35 -65 51 -123 59
-27 4 -57 16 -68 27 -26 26 -62 38 -114 38 -34 0 -54 7 -81 28 -31 23 -46 27
-102 28 -45 0 -74 6 -92 17 -32 21 -106 32 -139 19 -18 -7 -32 -5 -55 9 -34
21 -82 24 -138 8 -26 -7 -42 -7 -51 0 -22 18 -90 23 -136 9 -36 -11 -52 -11
-80 -1 -46 16 -67 15 -115 -3z m252 -37 c7 3 16 -2 19 -11 3 -9 11 -13 18 -9
21 13 -97 -112 -127 -134 -39 -29 -66 -32 -46 -5 13 16 13 16 -7 0 -33 -28
-50 -23 -29 9 l18 26 -32 -22 c-17 -12 -31 -17 -31 -11 0 6 -5 8 -11 4 -23
-14 26 59 70 104 31 33 45 41 51 32 6 -10 14 -8 35 8 19 15 32 19 44 13 9 -5
22 -6 28 -4z m-202 -7 c3 5 12 10 18 10 8 0 7 -3 -2 -9 -11 -7 -9 -10 8 -16
19 -6 17 -11 -36 -76 -48 -61 -95 -99 -119 -99 -3 0 0 8 7 18 13 16 13 16 -7
0 -33 -29 -49 -23 -29 10 l18 27 -25 -22 c-26 -25 -44 -31 -32 -11 5 8 2 9
-10 5 -20 -8 -14 5 37 76 30 42 93 101 73 69 -11 -18 3 -14 31 8 19 15 30 17
43 10 13 -7 21 -7 25 0z m414 -19 l24 -15 -54 -49 c-55 -49 -85 -69 -128 -82
-14 -4 -21 -3 -18 2 4 6 -5 8 -21 5 l-27 -5 20 23 20 23 -24 -12 c-17 -9 -26
-10 -34 -2 -8 8 2 25 38 62 59 60 84 76 94 60 5 -8 13 -7 27 4 20 15 45 11 83
-14z m-595 7 c-5 -9 -2 -8 10 1 37 30 34 -5 -5 -64 -73 -108 -87 -122 -134
-138 -51 -18 -55 -14 -22 22 l22 26 -27 -24 c-16 -14 -28 -21 -28 -16 0 4 -8
1 -18 -8 -10 -10 -21 -15 -24 -11 -12 12 83 179 108 188 8 3 12 2 9 -4 -11
-18 12 -10 31 11 12 13 27 19 41 16 13 -2 23 0 23 4 0 5 5 9 11 9 5 0 7 -6 3
-12z m785 -11 c15 1 19 -2 12 -7 -10 -5 -8 -11 4 -24 20 -19 20 -19 45 -4 15
10 22 10 31 1 9 -9 18 -9 32 -2 15 8 29 7 58 -6 21 -10 36 -22 33 -26 -3 -5 1
-9 8 -9 7 0 -25 -22 -72 -50 -88 -52 -96 -54 -149 -44 -27 6 -29 9 -19 22 11
13 10 14 -11 7 -15 -4 -21 -4 -17 3 3 6 1 12 -5 14 -5 2 10 19 35 37 25 19 44
36 42 39 -3 2 -28 -14 -58 -36 -74 -54 -113 -73 -149 -70 -40 3 -45 13 -17 32
25 18 17 22 -12 6 -10 -5 -26 -7 -35 -4 -14 6 -10 13 22 46 49 51 103 84 112
70 4 -7 14 -6 31 4 14 7 32 11 40 7 8 -3 26 -6 39 -6z m-965 -19 c4 6 13 9 21
6 13 -5 12 -10 -4 -33 -10 -14 -32 -53 -49 -86 -33 -66 -58 -93 -92 -100 -12
-2 -28 -9 -36 -16 -21 -17 -17 4 7 37 l21 29 -24 -25 c-24 -24 -62 -50 -74
-50 -3 0 -3 8 0 18 4 9 -7 0 -24 -20 -17 -21 -34 -37 -38 -36 -4 1 -17 -3 -29
-10 -26 -15 -30 -5 -8 24 8 10 14 24 15 29 0 6 -9 -3 -19 -18 -10 -16 -21 -27
-24 -25 -3 2 -14 -6 -26 -16 -25 -23 -26 -13 -6 44 21 59 12 62 -10 3 -21 -55
-44 -93 -56 -93 -5 0 -6 8 -3 18 2 9 -1 7 -7 -5 -13 -24 -39 -39 -39 -21 0 7
-4 7 -14 -1 -11 -9 -15 -9 -19 1 -4 10 -8 10 -16 -2 -9 -12 -11 -10 -12 10 0
21 -3 18 -15 -15 -15 -40 -59 -96 -51 -65 1 8 -1 6 -6 -6 -11 -24 -47 -50 -47
-34 0 16 -22 12 -36 -7 -12 -16 -13 -14 -14 17 l-1 35 -14 -45 c-8 -26 -30
-60 -50 -80 -36 -35 -43 -31 -25 14 5 14 7 26 4 26 -3 0 -10 -13 -15 -30 -6
-16 -15 -27 -20 -24 -5 3 -9 -2 -9 -10 0 -9 -6 -16 -13 -16 -10 0 -11 17 -5
83 9 92 26 147 39 125 6 -9 11 -4 19 18 10 27 28 41 62 48 4 0 13 10 21 20 20
28 29 5 17 -46 -5 -24 -9 -52 -9 -63 1 -11 5 -2 10 20 5 22 16 60 26 85 13 36
17 41 23 25 6 -17 9 -15 23 17 11 25 21 36 34 34 10 -2 24 4 31 13 10 12 12
13 6 1 -5 -10 1 -8 16 5 l23 20 -6 -45 c-5 -41 -4 -42 5 -14 5 17 21 44 34 60
13 16 21 21 18 12 -10 -29 10 -20 29 13 10 19 23 29 31 26 7 -3 19 0 26 6 10
9 11 9 5 -3 -7 -12 -5 -12 11 1 31 27 45 13 28 -28 -8 -19 -13 -37 -11 -40 3
-2 9 9 15 24 10 28 53 86 51 68 -4 -28 3 -27 20 2 13 20 26 30 38 28 10 -1 24
3 32 9 12 9 13 8 6 -4 -7 -12 -5 -12 11 1 34 29 44 11 18 -34 -13 -23 -24 -46
-23 -52 0 -5 9 8 21 30 28 55 50 78 59 64 4 -8 13 -3 24 15 10 16 26 26 41 26
12 0 26 5 30 11 5 8 9 8 14 -1 5 -8 10 -9 14 -2z m1248 -68 c2 -7 15 -6 36 2
30 11 35 11 43 -5 7 -12 17 -16 32 -12 15 4 18 3 9 -3 -17 -11 -17 -22 -3 -31
16 -10 -129 -82 -179 -88 -34 -5 -41 -3 -35 7 6 10 4 12 -7 7 -22 -8 -30 3
-15 21 10 13 9 14 -9 8 -44 -14 -20 27 39 65 61 40 83 47 89 29z m188 -61 c0
-8 12 -10 34 -6 25 4 36 1 40 -9 3 -8 15 -14 26 -14 13 0 19 -4 14 -11 -3 -6
-1 -14 5 -18 16 -10 -111 -68 -166 -77 -27 -4 -54 -2 -73 6 -28 12 -29 14 -13
27 17 14 17 14 -4 10 -36 -8 -35 20 1 42 35 22 117 60 129 61 4 0 7 -5 7 -11z
m180 -82 c0 -9 11 -12 35 -9 25 3 36 0 41 -12 3 -9 14 -16 23 -16 12 0 17 -7
16 -22 -1 -17 -15 -26 -71 -45 -79 -27 -139 -32 -173 -13 -23 12 -23 13 -5 23
18 10 18 11 -5 17 -30 7 -38 26 -14 33 10 3 45 17 78 31 69 30 75 31 75 13z
m-925 -21 c575 -27 1173 -340 1563 -818 452 -554 608 -1316 412 -2010 -172
-613 -610 -1131 -1190 -1407 -212 -101 -437 -167 -669 -196 -169 -22 -505 -16
-651 10 -633 114 -1151 453 -1500 980 -167 254 -276 532 -336 860 -27 144 -27
576 0 720 29 158 72 317 121 442 290 741 933 1265 1720 1398 98 17 330 33 390
28 17 -1 80 -5 140 -7z m1105 -76 c0 -6 14 -9 31 -8 20 2 34 -3 40 -15 6 -9
16 -17 24 -17 9 0 12 -8 10 -21 -5 -26 2 -22 -72 -42 -80 -22 -137 -22 -170 0
l-26 17 29 13 29 12 -31 1 c-45 0 -39 27 10 44 65 23 69 24 99 25 15 1 27 -4
27 -9z m-2685 -157 c-8 -93 -33 -182 -46 -162 -7 11 -9 9 -9 -7 0 -25 -36 -62
-42 -43 -3 8 -12 4 -26 -11 l-22 -24 0 91 c0 95 14 159 29 134 10 -15 15 -8
25 31 3 16 10 27 14 27 21 -4 32 3 32 19 0 13 2 14 9 4 7 -11 9 -11 14 2 4 9
11 16 17 16 7 0 9 -25 5 -77z m2849 52 c-5 -11 1 -15 25 -15 34 0 74 -32 76
-61 1 -14 -12 -20 -60 -28 -70 -13 -129 -14 -165 -4 l-25 7 25 7 25 7 -25 1
c-31 2 -65 21 -37 21 9 0 17 5 17 10 0 6 -7 10 -15 10 -8 0 -15 6 -15 14 0 10
22 20 63 29 85 21 118 21 111 2z m-3004 -188 c0 -97 -10 -137 -44 -178 l-26
-31 -1 34 c-1 26 -3 28 -6 9 -3 -13 -13 -33 -24 -44 -21 -23 -26 -17 -32 43
-3 25 -4 19 -6 -20 -2 -72 -11 -106 -22 -88 -6 9 -9 7 -9 -9 0 -48 -29 -75
-31 -30 l-2 22 -4 -22 c-2 -13 -9 -23 -14 -23 -5 0 -9 -7 -9 -15 0 -24 -20
-17 -21 8 -1 29 -6 13 -14 -48 -6 -39 -9 -46 -16 -30 -7 18 -8 18 -8 -5 -1
-28 -21 -66 -21 -41 0 16 -39 -25 -41 -43 0 -6 -7 3 -14 19 -14 29 -14 28 -15
-35 -1 -49 -4 -60 -11 -45 -8 17 -9 17 -6 -6 2 -15 -2 -38 -9 -50 -7 -13 -13
-19 -14 -13 0 16 -30 13 -30 -3 0 -26 -21 -13 -27 17 -11 58 -14 22 -3 -39 9
-52 9 -65 -5 -83 -8 -13 -15 -32 -16 -43 -1 -17 -2 -16 -9 5 -7 24 -7 23 -15
-12 -9 -46 -18 -48 -35 -8 -18 44 -22 32 -9 -31 9 -45 8 -63 -5 -100 -8 -24
-15 -39 -16 -32 0 7 -7 10 -16 6 -8 -3 -13 -12 -10 -19 3 -8 -1 -14 -9 -14 -8
0 -15 5 -15 12 0 6 -2 9 -5 7 -2 -3 1 -22 7 -42 9 -29 8 -46 -2 -78 l-14 -42
-13 29 c-12 28 -13 28 -11 4 0 -14 0 -36 -1 -50 -2 -25 -2 -25 -17 -5 -21 27
-84 156 -84 173 0 7 5 10 11 6 9 -5 10 1 5 20 -7 30 9 91 33 119 15 18 17 17
33 -20 11 -23 16 -28 13 -13 -3 14 -8 38 -12 54 -5 22 -3 27 7 21 9 -6 11 0 5
24 -5 22 -2 35 9 47 9 8 16 22 16 30 0 8 5 14 10 14 6 0 10 7 10 15 0 25 18
17 29 -12 8 -24 9 -21 4 16 -5 34 -3 42 7 36 9 -6 11 0 5 24 -5 22 -2 35 9 47
9 8 16 22 16 30 0 8 5 12 10 9 6 -3 10 3 10 14 0 35 24 30 37 -8 11 -35 11
-35 5 13 -4 36 -2 47 6 42 8 -5 12 4 12 27 0 22 6 37 15 41 8 3 15 16 15 28 0
17 3 19 9 10 6 -10 10 -9 14 7 8 31 25 25 36 -11 9 -32 9 -32 10 15 1 29 5 46
11 42 6 -4 10 9 10 30 0 28 5 38 20 42 11 3 20 10 20 15 0 13 26 38 39 38 6 0
11 -15 12 -32 1 -37 4 -30 14 26 5 29 9 36 16 25 6 -10 9 -7 9 13 0 26 22 58
41 58 5 0 9 5 9 11 0 6 6 17 14 25 13 12 16 12 25 -3 9 -16 11 -14 22 15 7 22
14 30 19 22 4 -7 10 3 14 24 4 20 11 34 16 31 5 -3 16 5 24 17 9 12 16 18 16
13 0 -6 5 -2 11 8 19 32 29 6 29 -76z m3139 77 c17 -4 28 -10 25 -15 -3 -5 7
-9 21 -9 31 0 83 -50 76 -71 -7 -24 -24 -29 -114 -29 -91 0 -143 14 -116 31
11 7 9 9 -8 9 -12 0 -25 5 -28 10 -3 6 2 10 11 10 15 0 14 3 -6 22 -25 24 -25
24 41 37 59 12 62 12 98 5z m173 -141 c-21 -8 -3 -23 29 -23 19 0 29 -5 29
-15 0 -8 9 -19 21 -25 15 -9 18 -15 10 -24 -6 -7 -7 -16 -3 -20 4 -4 -41 -6
-100 -4 -103 3 -108 4 -138 33 l-31 30 28 6 28 7 -27 1 c-29 1 -39 25 -15 34
6 3 50 5 97 5 47 0 79 -2 72 -5z m112 -129 c9 -3 14 -10 11 -15 -3 -4 9 -12
27 -17 18 -4 34 -14 34 -20 1 -7 2 -16 3 -22 0 -5 9 -10 19 -10 10 0 13 -3 6
-8 -6 -4 -10 -15 -8 -25 2 -16 -4 -17 -64 -11 -112 10 -180 33 -166 55 3 5 -2
9 -10 9 -9 0 -16 5 -16 10 0 6 5 10 10 10 6 0 10 5 10 10 0 6 -7 10 -15 10 -9
0 -12 6 -9 15 5 11 23 15 79 15 40 0 80 -3 89 -6z m83 -145 c50 -9 61 -14 53
-24 -8 -10 -3 -15 20 -23 16 -6 30 -16 30 -21 0 -6 9 -20 20 -31 11 -11 16
-20 10 -20 -5 0 -10 -7 -10 -15 0 -18 -17 -19 -95 -4 -71 13 -144 47 -126 59
9 5 6 9 -8 13 -25 6 -28 27 -3 27 14 0 14 2 3 9 -8 5 -16 17 -17 25 -3 20 32
21 123 5z m126 -170 c20 -6 37 -16 37 -23 0 -8 14 -19 32 -25 17 -6 28 -14 25
-18 -4 -3 -1 -16 7 -29 12 -17 12 -25 3 -38 -23 -31 -241 43 -221 75 3 5 0 9
-5 9 -6 0 -11 5 -11 11 0 7 11 9 27 6 26 -5 26 -4 8 9 -10 8 -22 14 -25 14 -4
0 -7 7 -7 15 0 13 9 15 46 9 25 -3 63 -10 84 -15z m94 -165 c35 -10 50 -19 47
-28 -3 -8 7 -18 26 -26 27 -11 31 -17 28 -42 -3 -16 0 -32 5 -35 6 -4 7 -1 2
7 -6 9 -4 11 5 5 10 -6 9 -11 -5 -22 -13 -8 -14 -13 -5 -13 7 0 11 -3 7 -6 -3
-4 -46 8 -94 26 -86 30 -138 64 -127 81 3 5 1 9 -4 9 -6 0 -12 6 -15 14 -5 11
0 13 26 5 30 -8 30 -7 13 6 -11 8 -23 15 -27 15 -4 0 -7 8 -6 18 1 20 2 20
124 -14z m21 -150 c72 -21 114 -42 107 -54 -3 -5 8 -16 24 -25 21 -10 29 -21
26 -34 -2 -11 3 -22 13 -26 16 -6 16 -7 -1 -16 -14 -8 -16 -14 -6 -25 6 -8 9
-14 5 -14 -20 0 -193 83 -210 101 -21 21 -21 22 -1 16 18 -6 17 -5 -2 9 -13 9
-23 21 -23 26 0 6 10 8 23 5 21 -6 21 -6 3 8 -18 14 -31 45 -19 45 3 0 30 -7
61 -16z m64 -165 c71 -28 122 -60 109 -68 -7 -5 0 -16 18 -29 21 -15 28 -27
24 -42 -3 -11 0 -20 6 -20 20 0 12 -20 -13 -31 -20 -10 -34 -6 -86 22 -61 33
-126 86 -116 97 3 2 1 13 -5 23 -9 17 -7 18 18 9 28 -10 28 -10 7 8 -11 9 -21
25 -21 35 0 21 -4 21 59 -4z m-4547 -130 c51 -104 66 -147 47 -135 -4 2 -6
-12 -4 -32 3 -36 2 -36 -14 -17 -14 16 -16 17 -11 3 4 -10 2 -18 -2 -18 -5 0
-7 -9 -4 -20 3 -11 2 -20 -2 -20 -11 0 -29 24 -77 103 -30 50 -38 71 -29 76 9
6 9 14 0 33 -8 19 -8 31 0 46 6 11 8 29 5 39 -4 13 -3 14 4 5 7 -10 11 -6 15
17 4 17 9 31 12 31 3 0 30 -50 60 -111z m4617 -55 c70 -36 109 -66 104 -80 -3
-7 6 -22 19 -34 13 -12 21 -28 18 -36 -3 -8 0 -20 6 -28 9 -11 8 -15 -5 -20
-10 -4 -14 -12 -10 -22 5 -12 -3 -10 -32 7 -66 40 -96 62 -129 93 -34 31 -46
58 -15 35 9 -7 6 -1 -7 14 -28 31 -21 48 12 28 21 -13 21 -12 -2 13 -15 15
-19 26 -12 26 11 0 11 3 1 15 -18 21 -7 19 52 -11z m-4663 -133 c47 -77 50
-88 49 -142 -2 -46 -5 -56 -15 -47 -14 11 -17 2 -14 -34 3 -28 -6 -22 -47 35
-47 62 -73 112 -65 120 3 4 0 20 -7 37 -10 24 -10 33 0 45 7 8 10 22 6 30 -3
9 -2 13 4 10 6 -3 10 2 10 13 0 22 11 35 21 25 4 -5 30 -46 58 -92z m4788
-114 c13 -11 21 -23 18 -25 -3 -3 4 -16 16 -28 19 -21 34 -98 17 -88 -7 5 -12
-10 -9 -28 2 -13 -2 -10 -79 47 -79 59 -110 96 -110 133 0 26 12 28 34 6 24
-24 19 -3 -6 23 -12 13 -16 23 -9 23 7 0 9 5 6 10 -9 14 95 -47 122 -73z
m-4823 -80 c51 -75 59 -92 62 -143 l5 -59 -21 25 c-19 23 -20 23 -10 3 8 -17
8 -23 -1 -23 -8 0 -8 -4 1 -15 22 -26 1 -30 -26 -4 -50 47 -99 120 -102 152
-7 86 6 165 26 153 4 -3 34 -43 66 -89z m4826 -90 c22 -15 38 -32 34 -38 -3
-6 3 -20 14 -32 12 -12 20 -31 18 -42 -2 -11 0 -27 5 -36 5 -10 3 -23 -4 -34
-12 -15 -19 -12 -83 40 -84 68 -102 91 -110 139 l-5 37 28 -17 28 -18 -24 27
c-14 15 -19 27 -13 27 7 0 9 7 5 18 -5 12 4 8 29 -13 20 -16 55 -42 78 -58z
m-4873 -74 c62 -73 88 -111 98 -143 7 -25 7 -25 -10 -5 -16 19 -16 19 -1 -7 9
-16 14 -28 11 -28 -3 0 -1 -10 5 -22 7 -16 1 -12 -21 12 -28 30 -30 31 -15 7
10 -16 15 -36 12 -44 -4 -9 -1 -22 5 -30 7 -7 9 -16 5 -20 -7 -7 -111 81 -140
120 -15 21 -17 30 -8 39 9 9 7 19 -9 44 -11 18 -16 35 -10 38 5 4 8 22 7 41
-2 19 1 35 6 35 5 0 6 5 3 10 -3 6 -2 10 3 10 6 0 32 -26 59 -57z m4910 -132
c16 -18 19 -27 10 -33 -8 -5 -5 -14 12 -32 18 -19 21 -28 13 -43 -6 -11 -7
-25 -3 -32 11 -16 2 -51 -12 -51 -15 0 -109 89 -139 133 -33 47 -38 78 -10 56
16 -13 16 -13 0 7 -28 32 -23 50 8 29 l25 -16 -16 24 c-8 13 -13 32 -9 41 5
14 13 11 53 -20 25 -20 56 -48 68 -63z m-4889 -115 c45 -46 82 -91 82 -100 0
-11 -4 -14 -12 -10 -8 5 -7 1 2 -10 8 -10 15 -28 17 -39 3 -20 1 -20 -22 6
-14 15 -25 24 -25 19 0 -5 7 -15 15 -22 9 -7 14 -19 11 -25 -2 -7 1 -18 7 -24
25 -25 -13 -9 -72 30 -69 46 -115 99 -85 99 15 0 15 3 -4 23 -18 19 -20 29
-13 54 5 17 5 36 1 43 -9 14 -3 40 9 40 4 0 44 -38 89 -84z m4897 -116 c-4 -6
0 -21 7 -33 15 -24 15 -114 0 -129 -8 -8 -111 99 -145 152 -18 29 -22 109 -4
91 16 -16 32 -14 19 2 -6 7 -8 24 -5 36 6 22 10 20 70 -42 36 -37 62 -71 58
-77z m-4924 -50 c65 -45 129 -105 129 -122 0 -6 -6 -6 -17 3 -12 9 -11 5 3
-11 30 -36 36 -57 17 -65 -13 -4 -14 -8 -5 -17 23 -23 12 -28 -24 -13 -35 15
-35 14 15 -31 28 -25 51 -50 51 -56 0 -6 -8 -4 -17 3 -9 8 -5 -2 10 -22 37
-49 34 -56 -10 -24 -36 26 -37 26 -10 1 37 -34 37 -61 0 -51 -60 14 -178 94
-142 95 8 1 2 11 -14 24 -24 19 -27 26 -18 49 7 18 7 28 -1 33 -7 5 -8 2 -3
-7 5 -8 4 -11 0 -6 -13 11 -16 45 -5 52 5 3 31 -6 57 -20 27 -15 37 -18 23 -8
-57 42 -79 65 -74 77 3 7 -4 20 -15 30 -11 10 -17 25 -14 37 3 10 1 25 -3 32
-11 15 -10 57 2 57 3 0 32 -18 65 -40z m4905 -132 c9 -17 11 -27 5 -24 -14 9
-14 -17 0 -31 7 -7 8 -20 3 -34 -4 -13 -8 -31 -9 -39 -1 -8 -2 -23 -3 -32 -3
-31 -19 -20 -70 50 -69 92 -87 132 -75 167 8 26 10 27 26 11 9 -10 17 -14 17
-9 0 5 -5 14 -11 20 -6 6 -8 21 -4 34 7 22 10 21 57 -30 26 -29 55 -66 64 -83z
m-55 -161 c23 -35 29 -51 20 -56 -9 -6 -9 -14 0 -34 9 -20 9 -30 0 -40 -6 -8
-8 -23 -4 -32 4 -13 3 -16 -5 -11 -8 5 -12 0 -12 -13 0 -30 -15 -26 -38 12
-11 17 -36 59 -56 91 -20 33 -36 71 -36 85 0 21 2 23 10 11 13 -20 13 -4 0 20
-15 28 6 35 24 8 18 -25 21 -17 6 13 -8 14 -7 23 2 33 15 16 33 -2 89 -87z
m-4765 -99 c75 -39 134 -83 134 -100 0 -6 -5 -7 -13 -2 -7 5 -6 2 3 -6 16 -15
33 -50 24 -50 -2 0 -17 7 -32 16 -27 16 -27 16 -6 -2 12 -11 24 -27 27 -36 10
-27 -19 -23 -100 16 -69 33 -98 56 -71 56 7 0 0 11 -16 23 -23 19 -28 29 -24
50 3 15 1 30 -5 34 -6 4 -7 1 -2 -7 5 -8 4 -11 -2 -7 -8 5 -10 32 -4 55 1 5 1
5 87 -40z m4699 -54 c33 -53 44 -78 36 -83 -9 -6 -9 -14 0 -34 8 -18 9 -30 2
-39 -6 -7 -13 -26 -17 -43 -11 -43 -28 -49 -46 -16 -8 16 -29 55 -47 88 -35
66 -55 141 -33 128 9 -5 11 -4 6 3 -12 20 4 35 21 21 12 -11 13 -8 7 16 -5 20
-4 26 5 21 6 -4 11 -2 11 3 0 19 6 12 55 -65z m-4646 -129 c106 -45 134 -65
158 -114 l20 -40 -28 15 c-35 18 -53 18 -20 0 14 -8 26 -21 27 -31 2 -15 -3
-17 -36 -12 -56 7 -158 56 -141 66 11 7 7 13 -15 24 -23 12 -29 22 -28 44 1
15 -4 34 -9 42 -10 11 -19 41 -13 41 1 0 39 -16 85 -35z m4601 -74 c22 -43 27
-76 9 -66 -7 5 -8 -5 -4 -29 4 -20 3 -42 -2 -49 -6 -6 -13 -24 -17 -38 -11
-47 -33 -43 -57 9 -55 123 -69 185 -48 223 10 20 11 20 25 2 13 -16 14 -15 7
12 -6 27 -5 29 10 16 15 -12 17 -11 17 5 0 21 21 -9 60 -85z m-61 -251 c0 -14
-3 -19 -6 -12 -8 21 -25 13 -18 -9 9 -28 -15 -105 -27 -87 -5 9 -8 4 -8 -14 0
-59 -28 -28 -59 66 -33 100 -38 144 -20 177 9 17 13 18 26 7 14 -11 16 -10 11
10 -4 12 -3 20 2 17 4 -3 11 3 15 13 5 13 17 -2 46 -63 22 -43 39 -91 38 -105z
m-4473 146 c83 -28 126 -49 144 -71 11 -13 10 -15 -6 -9 -17 5 -17 4 1 -7 29
-17 58 -49 45 -49 -6 0 -25 7 -43 15 -18 8 -23 10 -13 3 11 -7 29 -22 40 -33
l21 -20 -28 -3 c-32 -4 -163 33 -172 48 -3 6 0 10 7 10 7 1 -4 10 -24 21 -26
13 -35 24 -31 35 3 8 -3 22 -13 30 -11 9 -12 12 -4 8 12 -6 13 -4 3 7 -15 15
-17 39 -5 39 5 0 40 -11 78 -24z m4348 -220 c28 -98 29 -107 14 -101 -11 5
-14 -1 -10 -24 3 -19 -2 -36 -12 -46 -9 -9 -16 -24 -16 -33 0 -15 -2 -15 -10
-2 -8 12 -10 11 -10 -6 0 -12 -6 -24 -13 -27 -10 -4 -20 20 -35 83 -26 105
-28 152 -5 187 l17 26 13 -29 14 -29 -4 31 c-1 16 2 35 8 41 14 16 31 -8 49
-71z m-4242 40 c84 -21 148 -48 148 -63 0 -2 -10 -2 -22 1 -20 5 -20 5 2 -6
30 -15 43 -35 45 -65 1 -21 -4 -23 -50 -24 -57 -1 -53 -3 27 -19 44 -9 66 -20
97 -51 35 -33 38 -39 20 -39 -19 0 -19 -1 -5 -16 23 -23 20 -34 -11 -35 -23
-1 -21 -3 12 -10 66 -15 98 -31 83 -40 -9 -6 -8 -9 7 -9 11 0 29 -7 39 -15 19
-14 18 -15 -10 -16 -16 -1 -22 -3 -14 -5 9 -3 21 -13 28 -24 12 -19 9 -20 -89
-20 -86 0 -100 2 -95 15 4 11 -1 15 -19 15 -13 0 -30 7 -37 15 -29 32 -39 45
-33 45 3 0 -5 10 -17 23 l-23 22 65 6 c46 4 54 6 25 7 -58 3 -87 13 -81 27 3
8 -7 15 -25 19 -19 4 -33 14 -39 31 -5 14 -14 25 -20 25 -6 0 -9 4 -5 9 3 5 1
12 -5 16 -5 3 -10 12 -10 20 0 9 11 12 43 9 l42 -4 -48 15 c-26 9 -45 20 -42
26 4 5 -7 14 -23 20 -16 5 -29 16 -30 24 -1 8 -3 21 -4 29 -1 8 -8 12 -15 9
-8 -3 -13 -2 -12 3 1 5 0 11 -1 14 -6 17 -7 40 -2 40 4 0 50 -11 104 -24z
m4144 -220 c14 -61 16 -80 6 -84 -6 -2 -12 -19 -12 -37 0 -20 -6 -35 -15 -39
-8 -3 -15 -13 -15 -23 0 -15 -2 -16 -10 -3 -8 12 -10 11 -10 -6 0 -31 -29 -39
-34 -11 -33 155 -34 220 -7 257 l19 24 10 -34 10 -35 1 38 c1 23 5 36 11 32 6
-3 10 2 10 12 1 33 16 -7 36 -91z m-117 -125 c15 -95 14 -121 -5 -121 -9 0
-14 -8 -13 -17 3 -35 -1 -54 -11 -48 -6 3 -13 -1 -16 -9 -3 -9 -11 -13 -17 -9
-6 4 -8 0 -4 -9 3 -10 -3 -19 -17 -26 -23 -10 -23 -9 -30 65 -10 123 -8 153
16 191 l22 36 13 -30 12 -29 1 33 c0 20 4 31 10 27 6 -3 10 -1 10 4 0 6 4 11
9 11 4 0 13 -31 20 -69z m-125 -132 c7 -71 7 -150 -1 -131 -10 24 -23 11 -23
-22 0 -26 -5 -36 -20 -41 -11 -3 -20 -14 -20 -23 0 -14 -2 -14 -9 -3 -7 11
-10 10 -15 -6 -3 -11 -13 -20 -21 -20 -12 0 -15 18 -15 97 0 103 17 181 31
144 7 -17 8 -16 8 6 2 40 17 56 26 28 7 -22 7 -22 12 -3 5 19 20 34 34 35 3 0
9 -28 13 -61z m-3472 2 c21 -5 51 -21 69 -35 l31 -26 -39 -1 c-33 -2 -34 -3
-8 -6 16 -3 35 -12 41 -21 11 -15 9 -18 -14 -23 -32 -8 -193 -10 -174 -2 20 8
3 23 -28 23 -20 0 -31 6 -35 20 -3 11 -14 20 -23 20 -14 0 -14 2 -3 9 11 7 10
10 -6 15 -11 3 -20 13 -20 21 0 12 17 15 86 15 47 0 103 -4 123 -9z m3333
-260 c-5 -18 -9 -21 -15 -12 -5 10 -10 4 -15 -18 -3 -17 -11 -31 -15 -31 -5 0
-19 -10 -31 -22 -12 -13 -19 -16 -15 -8 5 9 2 8 -7 -2 -8 -10 -20 -18 -27 -18
-10 0 -12 19 -7 83 8 101 20 143 49 174 26 28 35 29 41 6 3 -13 5 -12 6 5 0
13 5 21 10 17 5 -3 13 0 18 7 10 16 17 -146 8 -181z m-3137 106 c21 -20 22
-22 5 -28 -17 -7 -17 -8 0 -8 10 -1 27 -10 39 -20 l21 -20 -24 -5 c-13 -3 -55
-10 -94 -15 -59 -9 -72 -8 -81 4 -6 8 -25 15 -42 15 -22 0 -32 6 -37 20 -3 11
-11 20 -17 20 -12 0 -50 41 -44 47 8 8 173 21 211 16 22 -3 50 -15 63 -26z
m2996 -109 c-7 -110 -13 -136 -24 -117 -7 10 -11 6 -16 -19 -4 -22 -15 -38
-30 -44 -13 -6 -24 -15 -24 -20 0 -5 -4 -7 -9 -4 -5 4 -11 1 -13 -6 -2 -6 -12
-12 -21 -14 -14 -2 -16 5 -11 44 10 88 35 190 50 202 7 7 14 9 15 4 0 -5 5 2
11 16 9 21 12 22 15 8 5 -22 23 -24 23 -2 0 8 4 13 9 10 5 -3 11 1 15 9 12 32
15 12 10 -67z m-2867 5 c16 -6 15 -8 -7 -14 -23 -7 -23 -7 7 -8 31 -1 58 -20
31 -22 -9 0 -9 -2 2 -6 21 -9 41 -31 32 -36 -38 -24 -228 -50 -192 -27 11 7 6
10 -22 10 -28 0 -38 5 -43 20 -3 11 -11 20 -17 20 -11 0 -51 41 -45 46 16 16
221 30 254 17z m2719 -105 c-10 -90 -24 -138 -39 -132 -7 2 -17 -9 -24 -26 -6
-17 -19 -30 -29 -30 -9 0 -23 -8 -31 -17 -9 -11 -11 -12 -7 -3 5 10 0 9 -14
-4 -12 -11 -25 -16 -29 -13 -21 22 59 255 86 250 6 -2 11 1 11 6 0 5 7 11 14
14 10 4 13 1 9 -9 -7 -20 4 -18 29 6 12 11 24 20 26 20 3 0 2 -28 -2 -62z
m-2543 -5 l32 -16 -30 -14 -30 -14 29 5 c19 2 36 -2 48 -14 19 -17 17 -19 -59
-44 -82 -27 -129 -33 -118 -15 5 7 -4 8 -28 4 -26 -5 -36 -3 -40 9 -4 9 -17
16 -29 17 -22 0 -22 1 -3 9 18 8 17 9 -6 9 -15 1 -29 8 -33 16 -3 8 -2 15 2
15 4 1 48 12 97 25 108 29 127 30 168 8z m2372 -120 c-19 -87 -32 -116 -45
-108 -5 3 -16 -8 -25 -26 -9 -17 -19 -28 -22 -25 -4 3 -17 -1 -31 -10 -17 -11
-22 -12 -16 -3 6 11 3 10 -10 -1 -26 -21 -49 -22 -41 -2 4 9 14 40 22 67 27
90 62 153 93 169 28 13 30 13 30 -4 0 -17 3 -17 27 6 14 13 28 22 31 20 2 -3
-4 -40 -13 -83z m-2220 33 c41 -17 43 -23 13 -36 -20 -9 -19 -9 8 -5 21 4 35
1 44 -10 11 -13 4 -19 -54 -45 -79 -36 -133 -50 -122 -31 6 9 -1 11 -27 6 -26
-5 -36 -3 -40 9 -4 9 -15 16 -25 16 -18 0 -60 36 -51 43 5 5 168 55 194 61 11
2 21 4 23 5 1 0 18 -6 37 -13z m2005 -72 c-9 -27 -9 -28 5 -10 8 11 15 23 15
27 0 4 9 7 20 6 26 -2 25 -12 -4 -93 -25 -67 -46 -102 -46 -73 0 7 -9 -1 -20
-18 -11 -18 -28 -33 -38 -33 -10 0 -24 -6 -31 -12 -11 -11 -12 -10 -6 2 6 11
4 11 -11 -2 -11 -9 -25 -14 -31 -10 -22 13 79 232 107 232 5 0 7 -8 4 -17 -4
-14 -2 -13 7 2 13 21 31 36 36 31 2 -2 -1 -16 -7 -32z m-1831 -10 c27 -6 29
-9 19 -22 -11 -13 -10 -15 10 -10 12 4 22 2 22 -2 0 -5 8 -10 18 -12 11 -3
-10 -18 -58 -43 -82 -42 -183 -57 -194 -30 -3 8 -14 11 -28 8 -17 -3 -19 -2
-9 5 11 8 9 11 -9 14 -34 4 -35 22 -3 35 16 6 55 23 88 37 62 26 91 30 144 20z
m1657 -46 c-1 -7 -5 -20 -10 -28 -4 -8 2 -4 14 9 18 21 60 40 60 27 0 -2 -11
-34 -25 -70 -31 -81 -55 -122 -65 -106 -4 7 -13 2 -24 -14 -10 -16 -26 -26
-41 -26 -14 0 -25 -3 -25 -7 0 -5 -14 -9 -31 -10 -34 -3 -34 1 6 93 24 55 92
137 105 129 5 -3 11 -1 15 5 9 14 24 13 21 -2z m-1466 -17 l24 -7 -24 -18
c-23 -17 -17 -17 27 1 10 4 14 3 10 -5 -4 -6 1 -12 10 -14 12 -2 -7 -19 -56
-51 -76 -48 -97 -55 -103 -36 -2 7 -12 7 -30 -2 -19 -8 -31 -9 -40 -2 -7 6
-27 14 -45 17 -58 13 -46 31 55 80 94 45 122 51 172 37z m1290 -37 c0 -10 5
-12 13 -7 6 4 20 9 29 10 16 3 15 -4 -7 -55 -30 -67 -59 -108 -74 -105 -6 2
-18 -8 -27 -22 -11 -16 -23 -23 -38 -21 -11 2 -27 -2 -35 -8 -12 -9 -13 -8 -6
4 7 12 6 13 -6 4 -12 -10 -49 -16 -49 -8 0 5 84 141 102 164 18 23 73 60 90
60 5 0 8 -7 8 -16z m-1121 -10 l31 -7 -21 -18 c-24 -21 -19 -25 11 -9 24 13
52 2 42 -15 -8 -16 -86 -76 -121 -94 -18 -10 -25 -10 -31 -1 -6 9 -12 9 -28
-1 -17 -11 -26 -10 -49 1 -38 20 -51 24 -33 11 11 -8 12 -11 2 -11 -18 0 -52
19 -52 29 0 13 182 120 206 121 6 0 26 -3 43 -6z m940 -41 c-10 -27 -10 -27
11 -8 23 21 50 28 50 14 0 -5 -13 -33 -30 -62 -33 -58 -80 -109 -80 -87 0 9
-9 5 -26 -11 -15 -14 -35 -23 -49 -21 -13 2 -26 -1 -29 -6 -5 -9 -56 -4 -56 5
0 14 93 133 125 161 39 35 66 44 44 15 -7 -10 -2 -8 11 5 32 29 42 28 29 -5z
m-747 5 c19 4 19 3 7 -19 -11 -22 -11 -23 4 -11 16 13 61 8 55 -7 -6 -12 -103
-98 -125 -110 -16 -8 -22 -8 -25 1 -3 7 -12 6 -30 -6 -25 -16 -29 -16 -58 -1
-18 9 -29 12 -26 6 9 -15 -4 -13 -33 3 -24 13 -23 14 52 71 74 55 149 92 155
75 2 -4 12 -5 24 -2z m162 -20 c-6 -10 -5 -10 8 -1 20 17 30 5 17 -19 -10 -18
-9 -19 13 -5 13 8 31 12 41 8 14 -5 5 -18 -52 -75 -41 -41 -71 -64 -75 -57 -5
7 -16 4 -35 -10 -28 -21 -29 -21 -57 -3 -15 11 -25 13 -21 7 10 -16 8 -16 -31
-2 l-31 11 77 65 c85 73 169 119 146 81z m355 -5 c-13 -17 -13 -17 7 0 11 9
26 17 32 17 7 0 9 -7 5 -17 -5 -15 -3 -16 8 -5 18 17 32 15 25 -4 -5 -12 -2
-15 10 -10 15 6 15 3 -1 -21 -36 -57 -87 -113 -96 -107 -6 3 -19 -2 -31 -13
-24 -21 -112 -33 -129 -16 -11 11 104 149 144 174 39 23 43 24 26 2z m-175 -5
c-6 -10 -4 -10 7 0 7 6 19 12 26 12 11 0 11 -5 2 -22 -11 -21 -10 -22 5 -7 10
9 27 14 41 11 23 -4 22 -7 -31 -72 -52 -65 -84 -91 -84 -69 0 5 -12 0 -27 -11
-22 -16 -34 -18 -59 -11 -18 5 -37 5 -47 -1 -11 -6 -17 -5 -17 2 0 6 -4 8 -10
5 -49 -30 95 122 150 159 29 19 54 21 44 4z"/>
<path d="M2593 5045 c0 -8 4 -12 9 -9 4 3 8 9 8 15 0 5 -4 9 -8 9 -5 0 -9 -7
-9 -15z"/>
<path d="M2540 5011 c-12 -18 -16 -29 -8 -26 16 6 42 45 35 52 -3 2 -15 -10
-27 -26z"/>
<path d="M2350 5000 c-6 -11 -8 -20 -6 -20 3 0 10 9 16 20 6 11 8 20 6 20 -3
0 -10 -9 -16 -20z"/>
<path d="M2744 5008 l-19 -23 23 19 c12 11 22 21 22 23 0 8 -8 2 -26 -19z"/>
<path d="M2156 4975 c-9 -26 -7 -32 5 -12 6 10 9 21 6 23 -2 3 -7 -2 -11 -11z"/>
<path d="M2944 4988 l-19 -23 23 19 c12 11 22 21 22 23 0 8 -8 2 -26 -19z"/>
<path d="M3130 4945 c-11 -13 -10 -14 4 -9 9 3 16 10 16 15 0 13 -6 11 -20 -6z"/>
<path d="M2830 4900 c-9 -6 -10 -10 -3 -10 6 0 15 5 18 10 8 12 4 12 -15 0z"/>
<path d="M1966 4934 c-4 -9 -4 -19 -1 -22 2 -3 7 3 11 12 4 9 4 19 1 22 -2 3
-7 -3 -11 -12z"/>
<path d="M1777 4870 c-3 -11 -3 -20 -1 -20 2 0 8 9 14 20 6 11 7 20 2 20 -6 0
-12 -9 -15 -20z"/>
<path d="M1601 4804 c0 -11 3 -14 6 -6 3 7 2 16 -1 19 -3 4 -6 -2 -5 -13z"/>
<path d="M1428 4727 c-3 -19 -2 -25 4 -19 6 6 8 18 6 28 -3 14 -5 12 -10 -9z"/>
<path d="M1471 4724 c0 -11 3 -14 6 -6 3 7 2 16 -1 19 -3 4 -6 -2 -5 -13z"/>
<path d="M1262 4630 c0 -14 2 -19 5 -12 2 6 2 18 0 25 -3 6 -5 1 -5 -13z"/>
<path d="M3324 4895 c-10 -8 -14 -15 -8 -15 6 0 17 7 24 15 16 19 9 19 -16 0z"/>
<path d="M3494 4825 c-10 -8 -14 -15 -8 -15 5 0 19 7 30 15 10 8 14 15 8 15
-5 0 -19 -7 -30 -15z"/>
<path d="M3670 4740 c-8 -5 -10 -10 -5 -10 6 0 17 5 25 10 8 5 11 10 5 10 -5
0 -17 -5 -25 -10z"/>
<path d="M3538 4693 c6 -2 18 -2 25 0 6 3 1 5 -13 5 -14 0 -19 -2 -12 -5z"/>
<path d="M2335 4729 c-991 -104 -1778 -857 -1932 -1850 -23 -153 -23 -480 0
-628 117 -729 555 -1324 1208 -1640 613 -297 1304 -293 1914 11 763 380 1236
1176 1202 2023 -45 1093 -876 1975 -1966 2085 -118 12 -309 11 -426 -1z m180
-163 c17 -12 17 -16 6 -30 -10 -12 -17 -14 -25 -6 -13 13 -36 13 -36 0 0 -6
18 -26 40 -46 45 -41 51 -73 20 -104 -23 -23 -39 -25 -74 -9 -33 15 -40 36
-16 49 12 6 20 7 20 1 0 -14 32 -23 44 -11 7 7 -3 23 -32 53 -23 23 -42 52
-42 64 0 46 55 68 95 39z m-152 -28 c4 -18 9 -66 13 -105 6 -69 5 -73 -14 -73
-11 0 -32 16 -48 36 -69 87 -66 87 -59 17 5 -58 4 -63 -13 -63 -23 0 -28 16
-38 123 -6 71 -5 77 12 77 11 0 41 -23 67 -52 l48 -53 -6 63 c-6 57 -5 62 13
62 14 0 21 -9 25 -32z m327 12 c0 -16 -7 -20 -30 -20 -39 0 -41 -27 -2 -32 19
-2 27 -9 27 -23 0 -17 -6 -19 -32 -17 -33 3 -33 3 -33 -42 0 -39 -3 -46 -20
-46 -18 0 -20 7 -20 69 0 38 3 83 6 100 6 30 9 31 55 31 42 0 49 -3 49 -20z
m213 -30 c41 -45 38 -101 -7 -146 -26 -26 -42 -34 -71 -34 -52 0 -105 53 -105
105 0 47 14 71 53 96 44 27 93 19 130 -21z m-774 -87 c51 -75 58 -89 44 -97
-12 -6 -21 -3 -32 10 -12 15 -23 18 -47 14 -42 -9 -54 -18 -54 -41 0 -12 -7
-19 -20 -19 -23 0 -23 -1 -9 110 14 108 15 110 38 110 14 0 39 -27 80 -87z
m943 65 c46 -17 51 -89 7 -103 -20 -7 -21 -23 -2 -88 4 -15 0 -18 -18 -15 -19
2 -25 13 -34 53 l-11 50 -10 -39 c-10 -41 -21 -51 -40 -38 -9 5 -5 34 14 105
28 106 23 103 94 75z m-1151 -59 c6 -12 8 -36 5 -53 -5 -27 -1 -37 24 -61 16
-16 30 -32 30 -37 0 -18 -46 -6 -73 20 l-30 27 7 -30 c12 -48 12 -50 -8 -50
-15 0 -26 20 -51 90 l-33 90 22 12 c36 21 94 16 107 -8z m1308 12 c11 -7 13
-24 7 -78 l-6 -68 48 54 c35 39 54 53 65 48 21 -8 21 -13 -2 -115 -21 -92 -24
-97 -45 -89 -11 4 -12 14 -5 44 17 74 12 80 -27 35 -20 -24 -44 -42 -56 -42
-19 0 -20 5 -16 65 2 36 3 65 2 65 -1 0 -14 -20 -28 -44 -30 -52 -37 -58 -55
-46 -14 8 -3 33 66 143 25 39 30 42 52 28z m-1469 -50 c0 -11 -5 -21 -12 -23
-13 -5 -8 -18 36 -120 15 -35 15 -38 -3 -47 -16 -9 -22 -2 -51 64 -27 61 -36
74 -53 72 -13 -1 -23 5 -25 15 -2 12 10 23 40 37 55 25 68 25 68 2z m1759 -80
c13 -8 13 -24 3 -112 -7 -56 -14 -104 -16 -106 -10 -10 -36 12 -36 32 0 15
-11 30 -32 43 -29 19 -34 19 -49 6 -16 -14 -49 -10 -49 6 0 8 151 140 160 140
3 0 11 -4 19 -9z m-1964 -18 c3 -10 1 -19 -4 -21 -6 -2 -21 -12 -33 -22 -21
-17 -21 -19 -5 -25 10 -4 28 0 42 9 23 15 25 15 35 -4 9 -16 6 -22 -20 -35
-33 -17 -37 -27 -16 -44 11 -10 21 -9 44 3 30 16 42 13 42 -10 0 -12 -88 -71
-94 -63 -15 20 -96 162 -96 169 0 8 78 60 91 60 4 0 10 -8 14 -17z m1341 -67
c652 -136 1154 -621 1319 -1273 42 -167 57 -422 35 -603 -13 -110 -61 -303
-101 -405 -45 -118 -131 -277 -207 -385 -85 -121 -270 -306 -392 -393 -115
-81 -341 -196 -467 -237 -185 -59 -296 -75 -528 -75 -232 0 -343 16 -528 75
-126 41 -352 156 -467 237 -122 87 -306 272 -392 393 -318 449 -402 1003 -231
1535 83 260 274 550 483 733 235 206 521 346 817 401 151 28 166 30 363 25
138 -2 201 -9 296 -28z m796 -18 c32 -22 28 -53 -6 -44 -17 4 -29 -7 -64 -60
-23 -35 -47 -64 -52 -64 -25 0 -18 32 19 90 31 48 38 66 30 76 -6 8 -9 21 -5
29 6 17 24 11 78 -27z m-2283 -78 c42 -60 57 -70 78 -49 13 13 33 4 33 -14 0
-11 -58 -57 -72 -57 -12 0 -119 161 -113 170 13 21 34 7 74 -50z m2365 21 c3
-4 -21 -45 -54 -89 -42 -57 -64 -80 -75 -76 -23 9 -19 19 41 99 53 70 75 87
88 66z m-2470 -57 c9 -8 16 -22 16 -30 0 -8 9 -14 19 -14 27 0 51 -27 51 -58
0 -27 -44 -82 -66 -82 -13 0 -134 137 -134 151 0 11 63 49 82 49 9 0 24 -7 32
-16z m2607 -53 c47 -48 37 -130 -21 -164 -44 -26 -93 -22 -129 12 -26 24 -31
36 -31 76 0 38 5 52 29 76 24 24 38 29 76 29 38 0 52 -5 76 -29z m-2720 -112
c52 -22 96 -42 98 -45 2 -2 -2 -10 -9 -19 -9 -11 -17 -12 -32 -4 -17 9 -25 6
-50 -19 -25 -25 -28 -33 -19 -50 8 -15 7 -23 -4 -32 -19 -16 -16 -18 -52 55
-51 104 -57 123 -43 140 7 8 13 15 14 15 2 0 45 -18 97 -41z m2845 -87 c-23
-84 -21 -89 24 -48 43 39 55 43 66 24 5 -8 -20 -37 -66 -80 -65 -60 -76 -67
-89 -54 -13 13 -13 22 2 75 24 86 22 90 -22 47 -25 -25 -45 -37 -55 -33 -27
10 -19 23 56 91 63 56 75 63 87 51 12 -12 12 -22 -3 -73z m-2968 -72 c62 -47
70 -56 57 -69 -10 -10 -34 -14 -87 -12 l-73 2 48 -36 c49 -37 57 -52 33 -61
-14 -5 -166 101 -166 115 1 27 20 33 96 26 l79 -7 -50 38 c-27 20 -52 39 -54
40 -2 2 2 10 9 19 14 17 15 17 108 -55z m-110 -183 c49 -30 63 -55 36 -64 -6
-2 -47 20 -92 49 -69 46 -79 56 -71 71 10 17 12 17 42 -3 18 -11 56 -35 85
-53z m3321 26 c7 -14 -5 -37 -53 -105 -33 -48 -64 -87 -68 -88 -13 0 -19 41
-8 55 19 23 -21 79 -57 80 -17 0 -29 6 -31 16 -2 12 17 20 85 36 112 26 120
27 132 6z m-3414 -104 c50 -5 96 -12 102 -14 23 -8 2 -35 -26 -35 -21 0 -31
-8 -45 -36 -15 -33 -15 -38 -2 -53 13 -14 14 -21 3 -35 -11 -15 -20 -8 -84 66
-57 66 -69 86 -62 100 11 21 2 21 114 7z m3501 -44 c3 -8 -10 -44 -31 -80
l-36 -65 56 27 c47 23 57 25 65 13 5 -8 6 -18 4 -22 -6 -10 -160 -88 -173 -88
-24 0 -19 37 14 92 19 33 35 61 35 64 0 2 -23 -7 -50 -21 -51 -26 -70 -26 -70
0 0 14 141 93 168 95 7 0 15 -7 18 -15z m-3638 -108 c-2 -17 10 -26 70 -51 76
-31 77 -33 63 -55 -8 -12 -21 -9 -82 16 -65 27 -75 29 -85 16 -7 -11 -16 -13
-26 -7 -14 8 -13 15 4 60 16 42 23 51 39 47 13 -4 19 -13 17 -26z m3743 -114
c26 -68 24 -90 -14 -128 -28 -28 -43 -35 -74 -35 -21 0 -48 7 -60 15 -20 14
-61 101 -52 110 7 7 163 64 177 64 7 1 17 -11 23 -26z m-3797 -19 c4 -10 -1
-22 -10 -29 -10 -6 -14 -17 -10 -24 5 -8 21 -4 55 15 55 32 91 28 109 -11 19
-41 -14 -95 -57 -95 -17 0 -13 37 4 44 14 5 22 46 10 46 -3 0 -27 -11 -53 -25
-58 -31 -76 -31 -96 -3 -21 29 -20 40 5 72 24 30 34 33 43 10z m87 -190 c23
-21 24 -62 3 -92 -18 -26 -59 -28 -144 -8 -45 10 -56 17 -58 36 -3 19 0 22 20
17 122 -31 158 -32 158 -3 0 21 -24 32 -97 46 -48 10 -63 17 -63 30 0 9 2 19
5 22 10 9 157 -31 176 -48z m3803 -76 c24 -92 -17 -158 -99 -158 -35 0 -52 6
-69 23 -23 23 -45 102 -32 114 7 7 150 41 177 42 9 1 19 -9 23 -21z m-3982
-112 c-18 -39 2 -39 48 -1 23 19 50 35 61 35 26 0 59 -35 59 -63 0 -27 -26
-67 -44 -67 -21 0 -29 32 -11 42 16 10 20 34 6 42 -4 3 -29 -11 -54 -30 -36
-28 -52 -35 -71 -30 -47 12 -56 64 -19 102 23 23 40 2 25 -30z m4022 -113 c11
-67 8 -83 -14 -83 -13 0 -20 7 -20 19 0 31 -11 51 -27 51 -12 0 -14 -8 -10
-36 4 -26 2 -37 -10 -41 -18 -7 -33 13 -33 45 0 17 -6 22 -26 22 -23 0 -25 -3
-22 -37 2 -29 -1 -39 -14 -41 -21 -4 -25 4 -29 63 l-4 50 90 11 c50 6 95 12
101 13 6 0 14 -16 18 -36z m-4044 -113 c0 -23 4 -30 20 -30 16 0 20 7 20 30 0
23 4 30 20 30 15 0 20 -7 20 -29 0 -31 14 -41 61 -41 23 0 29 -5 29 -20 0 -20
-5 -21 -102 -18 l-103 3 -3 53 c-3 47 -1 52 17 52 17 0 21 -6 21 -30z m4058
-27 c-2 -11 -28 -27 -66 -42 -34 -13 -60 -27 -56 -30 3 -3 31 -15 62 -26 43
-15 58 -25 60 -42 3 -22 2 -21 -103 14 -91 30 -106 38 -103 55 2 15 25 29 88
53 98 39 123 43 118 18z m-3912 -127 c58 -58 42 -141 -32 -172 -61 -26 -132
12 -148 79 -9 36 18 93 53 112 46 25 89 19 127 -19z m3882 -82 c29 -5 33 -8
28 -27 -3 -12 -6 -37 -6 -54 0 -26 -4 -33 -19 -33 -16 0 -20 8 -23 37 -3 42
-28 59 -28 20 0 -39 -10 -55 -29 -50 -13 3 -16 12 -13 39 4 31 2 34 -22 34
-20 0 -26 -5 -26 -22 0 -33 -15 -52 -35 -44 -13 5 -16 13 -11 37 3 18 6 42 6
55 0 22 2 23 73 18 39 -3 87 -7 105 -10z m-108 -144 c114 -18 120 -20 120 -42
0 -17 -5 -19 -32 -14 -18 3 -56 8 -85 12 -49 6 -51 5 -55 -17 -2 -16 -10 -24
-23 -24 -20 0 -22 14 -9 73 5 26 0 25 84 12z m-3701 -101 c6 -29 10 -54 8 -56
-3 -2 -47 -14 -100 -27 l-95 -23 -11 43 c-15 60 -14 74 8 74 14 0 21 -10 25
-35 9 -48 38 -37 34 13 -2 28 1 37 14 40 12 2 19 -6 24 -33 5 -26 11 -35 21
-31 8 3 19 6 25 6 6 0 7 15 3 40 -6 36 -5 40 13 40 16 0 23 -10 31 -51z m3746
-51 c53 -47 49 -134 -8 -168 -50 -31 -93 -26 -133 14 -71 71 -29 176 70 176
32 0 52 -6 71 -22z m-3722 -88 c80 -63 37 -190 -66 -190 -49 0 -73 13 -92 50
-16 31 -20 87 -7 107 15 23 37 -4 34 -41 -6 -63 64 -101 110 -59 22 20 24 76
2 97 -22 23 -37 20 -24 -3 15 -29 12 -41 -9 -41 -14 0 -24 13 -35 47 -9 26
-16 48 -16 50 0 2 17 3 39 3 23 0 48 -8 64 -20z m3616 -142 c48 -17 87 -32 89
-34 2 -1 -5 -20 -14 -44 -22 -54 -57 -70 -93 -42 -20 16 -26 28 -24 55 2 32
-1 36 -37 51 -28 11 -38 20 -34 31 8 21 16 20 113 -17z m-3511 -83 c12 -25 22
-48 22 -51 0 -7 -166 -84 -181 -84 -5 0 -19 21 -30 47 -16 37 -17 48 -7 55 20
12 25 10 38 -22 14 -33 37 -35 32 -4 -7 44 -6 57 5 61 6 2 19 -9 28 -26 14
-27 18 -29 40 -19 23 10 23 12 9 40 -8 16 -12 33 -9 38 13 21 32 8 53 -35z
m3520 -154 c-4 -18 -35 -20 -108 -8 l-45 8 49 -49 c38 -40 47 -54 41 -72 -4
-13 -12 -19 -21 -16 -7 3 -52 17 -99 32 -87 27 -91 30 -77 52 7 10 17 9 51 -3
65 -22 69 -19 27 24 -23 24 -36 46 -34 57 4 20 7 21 83 11 l50 -7 -27 20 c-71
54 -73 57 -59 74 12 14 22 9 92 -46 51 -39 79 -67 77 -77z m-3459 33 c12 -20
19 -39 16 -43 -17 -17 -170 -99 -177 -95 -21 13 -2 37 57 71 66 38 72 46 56
73 -6 8 -7 18 -5 22 11 18 33 6 53 -28z m65 -105 c15 -22 26 -42 24 -43 -49
-39 -163 -106 -174 -102 -26 10 -14 31 34 59 83 50 84 51 70 82 -10 22 -9 28
3 36 8 5 15 9 15 9 1 0 14 -18 28 -41z m3191 -86 c84 -55 85 -57 70 -80 -51
-79 -47 -75 -63 -59 -13 13 -13 18 2 41 13 20 15 30 7 38 -9 9 -18 4 -36 -18
-19 -24 -26 -28 -36 -17 -11 10 -10 18 4 42 17 28 17 29 -4 40 -17 10 -23 8
-35 -7 -7 -10 -14 -21 -14 -25 0 -12 -28 -10 -35 2 -5 9 43 100 53 100 1 0 40
-25 87 -57z m-3082 -63 c59 -65 19 -165 -70 -177 -39 -5 -46 -2 -78 30 -55 55
-48 127 18 168 44 27 93 19 130 -21z m3004 -79 c83 -70 78 -86 -26 -77 l-76 6
45 -40 c40 -35 43 -41 30 -54 -13 -14 -24 -8 -93 50 -64 54 -76 68 -66 80 9
12 28 13 88 8 l76 -6 -47 37 c-52 41 -54 45 -36 63 9 9 15 9 27 -1 9 -7 44
-37 78 -66z m-2877 -66 c35 -18 60 -62 60 -106 0 -47 -56 -99 -107 -99 -45 0
-77 20 -98 60 -21 40 -19 60 5 60 11 0 20 -6 20 -14 0 -26 41 -66 68 -66 33 0
72 36 72 67 0 29 -42 73 -70 73 -13 0 -20 7 -20 20 0 25 28 26 70 5z m2700
-90 c40 -41 57 -52 66 -44 15 12 34 4 34 -14 0 -15 -61 -77 -76 -77 -20 0 -27
19 -13 36 10 13 3 24 -46 74 -53 53 -63 80 -32 80 7 0 37 -25 67 -55z m-2169
-286 l-7 -57 56 -28 55 -27 -40 -9 c-88 -18 -82 -13 -89 -80 l-7 -62 -32 55
c-30 52 -34 54 -62 48 -16 -4 -43 -7 -60 -8 l-29 -1 42 43 41 42 -29 53 c-17
28 -26 52 -20 52 5 0 30 -10 55 -22 l45 -22 42 42 c23 23 43 40 44 39 0 -1 -2
-27 -5 -58z m1645 -1 c26 13 49 21 51 18 3 -3 -7 -26 -21 -52 l-27 -48 43 -44
43 -44 -49 7 c-27 3 -54 9 -60 11 -7 3 -25 -19 -41 -48 -24 -44 -30 -49 -36
-32 -4 10 -8 36 -8 56 -1 34 -4 38 -38 47 -21 6 -45 11 -54 11 -36 0 -27 16
22 37 l52 23 -7 62 -6 62 45 -44 45 -44 46 22z m-865 -160 l14 -53 63 -5 62
-5 -49 -33 -49 -34 19 -56 c10 -30 19 -57 19 -60 0 -2 -23 12 -51 32 l-50 37
-50 -36 c-54 -40 -56 -38 -34 25 8 23 15 46 15 51 0 4 -21 24 -46 44 l-47 35
61 0 61 0 17 55 c10 30 21 55 24 55 4 0 13 -24 21 -52z"/>
<path d="M2786 4499 c-32 -25 -35 -70 -6 -99 41 -41 110 -10 110 49 0 30 -38
71 -65 71 -7 0 -24 -9 -39 -21z"/>
<path d="M2056 4425 c-8 -32 -7 -33 21 -26 22 6 22 7 4 30 l-18 24 -7 -28z"/>
<path d="M3030 4450 c0 -13 7 -20 20 -20 24 0 27 25 4 34 -23 9 -24 8 -24 -14z"/>
<path d="M1850 4400 c0 -22 1 -23 24 -14 23 9 20 34 -4 34 -13 0 -20 -7 -20
-20z"/>
<path d="M3462 4247 c-21 -22 -21 -23 -3 -34 16 -10 20 -8 25 19 8 40 4 43
-22 15z"/>
<path d="M1778 4059 c-32 -16 -58 -32 -58 -34 0 -5 119 52 129 61 13 12 -22
-1 -71 -27z"/>
<path d="M1629 3972 c-343 -224 -586 -559 -694 -957 -190 -696 62 -1407 645
-1820 36 -26 74 -51 85 -56 12 -6 10 -3 -5 8 -182 131 -292 229 -394 351 -475
571 -513 1373 -96 2005 113 170 322 375 488 477 46 28 60 40 48 40 -2 0 -37
-22 -77 -48z"/>
<path d="M2578 3893 c3 -37 -1 -69 -8 -84 -10 -17 -10 -24 -1 -27 6 -2 8 -8 5
-14 -3 -5 3 -4 14 3 38 24 43 115 9 155 l-23 27 4 -60z"/>
<path d="M3590 3886 c0 -2 8 -10 18 -17 15 -13 16 -12 3 4 -13 16 -21 21 -21
13z"/>
<path d="M3660 3825 c13 -14 26 -25 28 -25 3 0 -5 11 -18 25 -13 14 -26 25
-28 25 -3 0 5 -11 18 -25z"/>
<path d="M3750 3745 c19 -19 36 -35 39 -35 3 0 -10 16 -29 35 -19 19 -36 35
-39 35 -3 0 10 -16 29 -35z"/>
<path d="M3800 3687 c0 -2 15 -16 33 -33 l32 -29 -29 33 c-28 30 -36 37 -36
29z"/>
<path d="M3875 3600 c10 -11 20 -20 23 -20 3 0 -3 9 -13 20 -10 11 -20 20 -23
20 -3 0 3 -9 13 -20z"/>
<path d="M3900 3566 c0 -2 8 -10 18 -17 15 -13 16 -12 3 4 -13 16 -21 21 -21
13z"/>
<path d="M2290 3519 c0 -25 12 -59 20 -59 5 0 5 14 0 31 -11 36 -20 49 -20 28z"/>
<path d="M2323 3515 c0 -8 4 -15 9 -15 4 0 8 7 8 15 0 8 -4 15 -8 15 -5 0 -9
-7 -9 -15z"/>
<path d="M2822 3500 c-6 -16 -7 -32 -3 -34 4 -3 13 10 19 29 12 43 -2 47 -16
5z"/>
<path d="M2248 3515 c-9 -9 12 -65 24 -65 5 0 6 5 3 11 -4 6 -10 22 -14 35 -3
14 -9 22 -13 19z"/>
<path d="M2853 3501 c-9 -15 -9 -23 3 -37 14 -18 15 -18 9 3 -3 12 -1 24 5 28
12 7 14 25 2 25 -4 0 -13 -9 -19 -19z"/>
<path d="M2911 3478 c-13 -37 -13 -38 -3 -38 11 0 32 59 22 65 -4 3 -13 -9
-19 -27z"/>
<path d="M2203 3465 c6 -20 14 -32 19 -27 10 10 -10 62 -23 62 -4 0 -2 -16 4
-35z"/>
<path d="M2150 3475 c0 -2 5 -16 12 -30 16 -35 29 -31 17 5 -6 17 -15 30 -20
30 -5 0 -9 -2 -9 -5z"/>
<path d="M2990 3451 c0 -11 5 -23 10 -26 6 -4 8 -11 5 -16 -4 -5 -2 -9 3 -9
17 0 21 13 10 34 -7 11 -11 24 -10 29 1 4 -2 7 -8 7 -5 0 -10 -9 -10 -19z"/>
<path d="M2084 3432 c4 -7 18 -12 31 -12 13 0 26 -6 28 -12 3 -8 6 -6 6 5 1
10 -6 17 -18 17 -11 0 -27 3 -37 7 -12 4 -15 3 -10 -5z"/>
<path d="M2483 3409 c4 -19 13 -56 21 -84 13 -46 15 -47 15 -17 1 18 -4 53
-10 78 -14 54 -35 73 -26 23z"/>
<path d="M4000 3420 c6 -11 13 -20 16 -20 2 0 0 9 -6 20 -6 11 -13 20 -16 20
-2 0 0 -9 6 -20z"/>
<path d="M2050 3409 c0 -18 -3 -20 -12 -11 -23 23 -29 12 -11 -18 18 -32 37
-41 26 -14 -5 13 -1 15 18 10 21 -6 22 -5 8 6 -9 7 -14 18 -12 25 2 6 -1 14
-6 18 -7 3 -11 -3 -11 -16z"/>
<path d="M2642 3394 c-6 -23 -12 -52 -11 -65 0 -16 6 -7 15 24 8 27 14 56 12
65 -2 10 -9 -2 -16 -24z"/>
<path d="M3050 3415 c-7 -9 -9 -22 -5 -32 7 -17 8 -16 13 2 2 11 9 26 14 33 7
8 7 12 0 12 -5 0 -15 -7 -22 -15z"/>
<path d="M3097 3386 c-10 -14 -13 -26 -8 -26 13 0 33 28 29 41 -2 6 -12 0 -21
-15z"/>
<path d="M3137 3360 c-11 -18 -14 -31 -7 -35 5 -3 10 -1 10 6 0 7 7 20 16 30
8 9 11 19 6 22 -4 3 -16 -7 -25 -23z"/>
<path d="M1951 3365 c-1 -15 37 -61 44 -54 3 4 -5 20 -19 35 -14 16 -25 25
-25 19z"/>
<path d="M4057 3315 c9 -19 18 -33 21 -31 4 5 -26 66 -33 66 -3 0 3 -16 12
-35z"/>
<path d="M1931 3311 c27 -22 32 -21 23 3 -3 9 -15 16 -26 16 -19 0 -19 -1 3
-19z"/>
<path d="M3212 3299 c-13 -17 -18 -30 -12 -34 5 -3 10 -1 10 4 0 6 5 11 11 11
6 0 8 -8 4 -19 -3 -11 -1 -22 5 -26 5 -3 10 2 10 13 0 11 7 22 15 26 8 3 15
11 15 17 0 8 -4 8 -15 -1 -20 -16 -32 -5 -16 14 7 8 8 16 4 19 -4 2 -18 -8
-31 -24z"/>
<path d="M1897 3285 c10 -13 24 -25 30 -25 8 0 4 10 -9 25 -28 32 -44 33 -21
0z"/>
<path d="M1840 3261 c0 -7 44 -31 55 -31 17 0 0 17 -25 27 -16 6 -30 8 -30 4z"/>
<path d="M3265 3229 c-9 -28 -4 -29 22 -2 21 21 21 23 3 23 -10 0 -22 -9 -25
-21z"/>
<path d="M4100 3225 c0 -5 5 -17 10 -25 5 -8 10 -10 10 -5 0 6 -5 17 -10 25
-5 8 -10 11 -10 5z"/>
<path d="M1770 3194 c0 -8 43 -43 54 -44 5 0 -1 11 -14 25 -22 24 -40 32 -40
19z"/>
<path d="M3330 3170 c-14 -10 -22 -21 -19 -25 4 -3 20 5 35 19 34 30 21 35
-16 6z"/>
<path d="M1730 3134 c0 -11 45 -42 53 -37 4 2 -3 13 -17 24 -25 19 -36 24 -36
13z"/>
<path d="M2345 3079 c-16 -6 -48 -8 -70 -5 -37 5 -42 2 -65 -31 -13 -19 -43
-47 -65 -61 -56 -36 -65 -50 -65 -99 0 -23 -7 -58 -16 -77 -17 -34 -17 -35 15
-82 17 -26 31 -51 31 -56 0 -5 16 -16 35 -24 28 -11 49 -12 106 -4 60 9 76 8
95 -5 13 -8 30 -15 38 -15 18 0 30 -33 21 -60 -4 -12 6 -44 25 -84 l32 -66
-17 -52 c-15 -48 -15 -61 -1 -143 15 -88 35 -157 50 -172 4 -4 6 199 4 452 -3
495 -2 485 -59 556 -32 40 -44 44 -94 28z"/>
<path d="M1700 3055 c7 -8 22 -15 34 -15 18 0 17 2 -8 15 -36 19 -42 19 -26 0z"/>
<path d="M4161 3054 c0 -11 3 -14 6 -6 3 7 2 16 -1 19 -3 4 -6 -2 -5 -13z"/>
<path d="M3413 3048 c-20 -10 -32 -28 -18 -28 12 0 55 24 55 32 0 10 -9 9 -37
-4z"/>
<path d="M1670 3042 c0 -4 14 -16 30 -25 17 -10 30 -13 30 -8 0 6 -13 17 -30
26 -16 9 -30 12 -30 7z"/>
<path d="M2496 3015 c4 -16 10 -259 14 -540 l6 -510 -1 515 c0 395 -3 521 -13
540 -12 25 -12 25 -6 -5z"/>
<path d="M2631 2999 c-6 -18 -10 -46 -10 -63 l1 -31 8 35 c4 19 11 47 15 63
10 37 -1 34 -14 -4z"/>
<path d="M3461 3023 c-1 -6 -13 -15 -28 -20 -21 -7 -23 -11 -11 -15 21 -8 52
15 45 33 -3 8 -6 9 -6 2z"/>
<path d="M1660 2993 c8 -3 23 -12 33 -21 9 -8 17 -11 17 -6 0 17 -23 34 -44
33 -15 0 -17 -2 -6 -6z"/>
<path d="M4181 2984 c0 -11 3 -14 6 -6 3 7 2 16 -1 19 -3 4 -6 -2 -5 -13z"/>
<path d="M2652 2952 c-8 -27 -12 -166 -12 -452 0 -365 2 -411 15 -400 8 7 15
18 15 24 0 7 11 23 26 36 18 17 23 31 19 47 -4 16 2 27 21 40 14 10 37 28 52
39 l26 22 -13 67 c-13 63 -12 69 6 93 11 15 44 45 73 68 35 27 60 56 72 83
l17 41 -38 0 c-40 0 -55 12 -104 86 -15 22 -27 51 -27 65 0 14 -16 49 -35 79
-39 61 -43 75 -17 66 14 -5 14 -4 -2 9 -11 8 -28 15 -37 15 -10 0 -24 2 -31 5
-10 4 -18 -6 -26 -33z"/>
<path d="M3450 2954 l-25 -15 30 6 c17 4 34 11 40 16 15 15 -17 10 -45 -7z"/>
<path d="M1640 2949 c0 -12 25 -22 41 -17 6 2 0 9 -15 16 -16 7 -26 8 -26 1z"/>
<path d="M4202 2890 c0 -14 2 -19 5 -12 2 6 2 18 0 25 -3 6 -5 1 -5 -13z"/>
<path d="M1606 2892 c-2 -4 11 -12 30 -18 39 -13 47 2 8 16 -31 12 -32 12 -38
2z"/>
<path d="M3490 2875 c-28 -30 -18 -33 16 -6 14 11 21 22 16 25 -5 3 -20 -6
-32 -19z"/>
<path d="M4212 2835 c0 -16 2 -22 5 -12 2 9 2 23 0 30 -3 6 -5 -1 -5 -18z"/>
<path d="M1606 2805 c-10 -8 -24 -16 -30 -18 -6 -2 -8 -7 -5 -11 6 -6 79 31
79 40 0 9 -26 2 -44 -11z"/>
<path d="M3513 2798 c-18 -5 -33 -11 -33 -13 0 -9 45 -5 60 5 22 14 9 18 -27
8z"/>
<path d="M4222 2760 c0 -19 2 -27 5 -17 2 9 2 25 0 35 -3 9 -5 1 -5 -18z"/>
<path d="M1576 2741 c-3 -5 8 -11 24 -13 24 -4 27 -2 19 9 -13 15 -35 17 -43
4z"/>
<path d="M3518 2713 c-32 -8 -19 -19 17 -15 19 2 35 8 35 13 0 9 -22 10 -52 2z"/>
<path d="M1575 2684 c13 -9 23 -10 36 -3 25 13 25 14 -17 15 -32 1 -34 -1 -19
-12z"/>
<path d="M4234 2570 c0 -63 1 -89 3 -57 2 31 2 83 0 115 -2 31 -3 5 -3 -58z"/>
<path d="M1550 2652 c0 -5 16 -12 35 -14 19 -2 35 0 35 4 0 4 -9 8 -19 8 -11
0 -26 3 -35 6 -9 3 -16 2 -16 -4z"/>
<path d="M3522 2638 c-8 -10 -2 -13 24 -13 30 0 32 2 17 13 -9 6 -20 12 -24
12 -3 0 -11 -6 -17 -12z"/>
<path d="M1550 2590 c0 -6 17 -10 37 -10 43 0 41 5 -4 13 -19 4 -33 2 -33 -3z"/>
<path d="M3540 2591 c-33 -6 -34 -7 -11 -15 16 -6 28 -3 39 8 9 9 14 15 12 15
-3 -1 -21 -5 -40 -8z"/>
<path d="M1571 2526 c-13 -7 -20 -16 -15 -19 5 -3 21 3 34 14 29 21 17 25 -19
5z"/>
<path d="M3510 2536 c0 -2 16 -6 35 -8 19 -2 35 0 35 4 0 4 -16 8 -35 8 -19 0
-35 -2 -35 -4z"/>
<path d="M3550 2496 c7 -7 13 -7 20 0 6 6 3 10 -10 10 -13 0 -16 -4 -10 -10z"/>
<path d="M1567 2463 c-14 -13 -6 -20 18 -15 14 2 22 8 19 13 -6 11 -28 12 -37
2z"/>
<path d="M3556 2452 c-4 -7 -16 -12 -27 -12 -10 0 -19 -5 -19 -10 0 -6 11 -8
28 -4 33 8 35 10 30 25 -3 10 -6 10 -12 1z"/>
<path d="M4223 2390 c0 -25 2 -35 4 -22 2 12 2 32 0 45 -2 12 -4 2 -4 -23z"/>
<path d="M1560 2410 c0 -13 30 -13 50 0 11 7 7 10 -17 10 -18 0 -33 -4 -33
-10z"/>
<path d="M3515 2390 c28 -12 55 -12 55 0 0 6 -17 10 -37 9 -31 0 -34 -2 -18
-9z"/>
<path d="M1592 2350 c-23 -31 -27 -40 -14 -40 4 0 17 16 30 35 27 43 14 47
-16 5z"/>
<path d="M3495 2340 c3 -5 21 -10 38 -9 27 0 29 2 12 9 -28 12 -57 12 -50 0z"/>
<path d="M4212 2315 c0 -16 2 -22 5 -12 2 9 2 23 0 30 -3 6 -5 -1 -5 -18z"/>
<path d="M2900 2293 c0 -6 -13 -16 -28 -21 -25 -8 -30 -17 -36 -58 -6 -47 3
-72 22 -60 12 7 55 136 48 143 -3 4 -6 2 -6 -4z"/>
<path d="M4202 2255 c0 -16 2 -22 5 -12 2 9 2 23 0 30 -3 6 -5 -1 -5 -18z"/>
<path d="M1620 2249 c-27 -14 -30 -18 -14 -19 20 0 63 25 54 32 -3 3 -21 -4
-40 -13z"/>
<path d="M3486 2240 c-21 -10 -32 -20 -25 -22 14 -5 65 17 74 33 9 13 -4 10
-49 -11z"/>
<path d="M1626 2204 c-9 -8 -16 -18 -16 -22 0 -3 5 -1 12 6 7 7 20 12 31 12
10 0 15 5 12 10 -9 14 -21 12 -39 -6z"/>
<path d="M4182 2168 c-7 -28 -11 -53 -8 -55 2 -2 9 19 16 47 7 28 10 53 8 55
-3 3 -10 -18 -16 -47z"/>
<path d="M3430 2170 c0 -12 48 -32 62 -28 5 2 -7 11 -26 21 -20 9 -36 12 -36
7z"/>
<path d="M1640 2161 c-21 -6 -22 -8 -7 -14 19 -7 47 1 47 14 0 10 -4 10 -40 0z"/>
<path d="M1677 2103 c-38 -20 -29 -27 13 -10 18 8 29 17 24 20 -5 3 -22 -2
-37 -10z"/>
<path d="M4141 2028 c-34 -108 -121 -286 -194 -396 -119 -181 -287 -351 -456
-462 -83 -55 -110 -79 -43 -39 251 150 470 391 607 667 53 107 118 277 113
294 -2 5 -14 -23 -27 -64z"/>
<path d="M2300 1939 c-45 -14 -82 -19 -120 -15 l-55 5 35 -16 c25 -11 53 -14
100 -10 53 5 61 4 45 -6 -35 -20 -164 -14 -219 11 -67 30 -70 20 -4 -17 66
-38 121 -47 208 -32 96 15 125 14 167 -9 28 -15 57 -20 108 -20 51 0 80 5 108
20 42 23 71 24 167 9 87 -15 142 -6 208 32 66 37 63 47 -4 17 -55 -25 -184
-31 -219 -11 -16 10 -8 11 45 6 48 -4 74 -1 100 10 l35 16 -51 -6 c-35 -3 -73
1 -125 16 -97 27 -166 27 -222 0 l-43 -21 -42 21 c-52 27 -133 27 -222 0z"/>
<path d="M2507 1813 c-13 -12 -7 -41 9 -47 28 -11 90 -6 109 8 32 23 3 46 -60
46 -28 0 -55 -3 -58 -7z"/>
<path d="M2507 1743 c-4 -3 -7 -15 -7 -25 0 -16 9 -18 64 -18 67 0 86 10 66
35 -13 15 -110 22 -123 8z"/>
<path d="M2500 1660 c0 -6 28 -10 64 -10 36 0 68 5 71 10 4 6 -20 10 -64 10
-41 0 -71 -4 -71 -10z"/>
<path d="M2502 1608 c3 -21 9 -23 64 -26 50 -2 63 0 68 13 11 28 -3 35 -70 35
-62 0 -65 -1 -62 -22z"/>
<path d="M1583 1542 c-55 -66 -56 -68 -28 -86 30 -20 56 -11 28 9 -17 12 -16
15 13 52 41 51 46 61 36 67 -5 3 -27 -16 -49 -42z"/>
<path d="M3452 1557 c-12 -15 28 -159 43 -153 5 2 9 13 8 24 -3 27 38 56 66
47 46 -14 25 14 -39 52 -50 31 -71 38 -78 30z m58 -47 c11 -7 12 -12 3 -21
-13 -13 -33 -4 -33 17 0 16 9 18 30 4z"/>
<path d="M2502 1538 c3 -20 10 -23 59 -26 40 -2 59 1 68 12 21 26 2 36 -65 36
-62 0 -65 -1 -62 -22z"/>
<path d="M2512 1491 c-8 -4 -12 -17 -10 -27 3 -15 13 -19 58 -22 66 -3 90 9
74 35 -12 20 -99 30 -122 14z"/>
<path d="M1697 1478 c-21 -17 -38 -63 -30 -85 12 -36 36 -53 73 -53 69 0 103
69 59 124 -23 29 -73 36 -102 14z m77 -21 c37 -27 13 -97 -33 -97 -21 0 -51
30 -51 52 0 21 34 58 53 58 7 0 21 -6 31 -13z"/>
<path d="M3325 1413 l7 -58 -34 33 c-29 27 -68 43 -68 28 0 -3 12 -37 26 -76
18 -47 30 -68 37 -61 6 6 4 23 -7 50 -19 49 -13 51 30 10 32 -31 59 -32 50 -1
-2 10 -7 31 -11 47 l-6 30 35 -34 c52 -51 55 -31 5 33 -58 74 -73 74 -64 -1z"/>
<path d="M2484 1418 c-4 -6 0 -16 9 -23 10 -7 17 -15 17 -19 0 -4 12 -18 26
-31 20 -18 31 -22 43 -15 28 17 51 37 51 45 0 4 7 13 17 20 31 23 4 35 -77 35
-49 0 -82 -4 -86 -12z"/>
<path d="M1885 1365 c-16 -15 -25 -36 -25 -55 0 -37 39 -80 72 -80 25 0 68 25
68 40 0 16 -58 41 -66 29 -4 -7 1 -16 11 -21 14 -8 15 -12 4 -18 -16 -11 -45
4 -59 31 -27 50 59 97 92 50 8 -11 19 -17 25 -13 24 15 -34 62 -77 62 -11 0
-32 -11 -45 -25z"/>
<path d="M3120 1367 c-14 -6 -27 -12 -29 -13 -2 -2 9 -34 24 -72 l27 -70 38
15 c25 10 37 20 33 29 -4 10 -10 11 -23 4 -27 -15 -37 -12 -43 10 -4 15 1 22
19 26 29 7 26 31 -2 26 -10 -2 -23 -5 -28 -5 -21 -4 -14 21 9 31 15 7 23 17
20 22 -8 12 -13 12 -45 -3z"/>
<path d="M3005 1319 c-4 -5 -4 -21 -1 -35 4 -13 2 -24 -3 -24 -5 0 -16 -3 -25
-6 -11 -4 -19 2 -26 20 -9 25 -30 36 -30 17 0 -5 9 -39 20 -75 21 -68 46 -83
34 -20 -4 21 -2 34 4 34 6 0 17 3 25 6 11 4 17 -4 22 -25 4 -17 13 -31 21 -31
18 0 18 -1 -7 81 -22 72 -24 75 -34 58z"/>
<path d="M2114 1310 c-28 -11 -54 -48 -54 -78 0 -33 43 -72 78 -72 66 0 103
75 60 123 -27 30 -55 39 -84 27z m60 -36 c24 -24 20 -61 -9 -80 -23 -15 -27
-15 -50 0 -42 28 -24 96 25 96 10 0 26 -7 34 -16z"/>
<path d="M2307 1269 c-23 -13 -21 -44 5 -79 15 -21 19 -33 11 -41 -7 -7 -15
-6 -26 5 -19 20 -34 2 -17 -19 24 -29 80 -12 80 23 0 7 -11 28 -25 46 -33 43
-32 49 6 41 22 -5 29 -4 25 4 -13 20 -41 30 -59 20z"/>
<path d="M2774 1218 c10 -73 17 -98 27 -98 5 0 9 15 9 33 l1 32 22 -27 c13
-16 28 -28 35 -28 17 0 15 8 -8 37 -15 20 -17 29 -9 39 6 8 8 25 5 39 -6 22
-12 25 -47 25 l-42 0 7 -52z m56 18 c0 -8 -7 -16 -15 -20 -10 -4 -15 1 -15 14
0 11 7 20 15 20 8 0 15 -6 15 -14z"/>
<path d="M2540 1160 c0 -5 11 -10 25 -10 14 0 25 5 25 10 0 6 -11 10 -25 10
-14 0 -25 -4 -25 -10z"/>
<path d="M1690 1126 c0 -3 9 -10 20 -16 11 -6 20 -8 20 -6 0 3 -9 10 -20 16
-11 6 -20 8 -20 6z"/>
<path d="M3320 1070 c-41 -21 -72 -39 -67 -40 10 0 147 69 147 75 0 7 3 8 -80
-35z"/>
<path d="M2030 1012 c26 -17 201 -61 305 -77 114 -17 317 -19 420 -4 84 12
248 49 242 55 -2 2 -42 -4 -88 -15 -277 -65 -561 -50 -879 46 -13 4 -13 3 0
-5z"/>
<path d="M1254 4069 c-10 -17 13 -36 27 -22 12 12 4 33 -11 33 -5 0 -12 -5
-16 -11z"/>
<path d="M1300 4007 c0 -23 22 -38 37 -26 21 18 15 39 -12 39 -14 0 -25 -6
-25 -13z"/>
<path d="M3786 4018 c-35 -49 -7 -108 51 -108 53 0 84 78 45 113 -27 25 -78
22 -96 -5z"/>
<path d="M1136 3897 c9 -30 11 -32 29 -17 18 15 13 26 -15 33 -18 4 -20 2 -14
-16z"/>
<path d="M4183 3583 c-20 -4 -21 -7 -12 -25 10 -19 11 -19 30 -2 19 17 25 35
12 33 -5 -1 -18 -4 -30 -6z"/>
<path d="M828 3458 c19 -20 24 -21 32 -8 16 25 12 30 -22 30 l-32 0 22 -22z"/>
<path d="M4373 3211 c-56 -22 -59 -26 -39 -56 21 -32 56 -33 91 -2 21 18 25
28 20 50 -8 31 -14 31 -72 8z"/>
<path d="M4443 2927 l-41 -12 13 -32 c11 -26 20 -33 42 -33 42 0 73 26 73 61
0 33 -14 36 -87 16z"/>
<path d="M600 2457 c-19 -9 -26 -22 -28 -48 -4 -46 18 -69 63 -69 62 0 87 71
39 109 -31 24 -40 25 -74 8z"/>
<path d="M4407 2062 c-24 -26 -21 -67 5 -92 26 -24 56 -26 86 -4 28 19 30 74
4 97 -25 22 -75 21 -95 -1z"/>
<path d="M4416 1805 c-3 -9 1 -18 10 -22 20 -7 38 18 21 29 -18 11 -24 10 -31
-7z"/>
<path d="M1050 1403 c-51 -19 -66 -77 -30 -113 26 -26 51 -25 84 1 26 20 35
61 18 85 -7 10 -47 35 -54 33 -2 0 -10 -3 -18 -6z"/>
<path d="M3843 4650 c-13 -5 -23 -12 -23 -15 0 -9 16 -5 36 10 22 16 19 18
-13 5z"/>
<path d="M1102 4515 c0 -16 2 -22 5 -12 2 9 2 23 0 30 -3 6 -5 -1 -5 -18z"/>
<path d="M1051 4374 c0 -11 3 -14 6 -6 3 7 2 16 -1 19 -3 4 -6 -2 -5 -13z"/>
<path d="M4000 4540 c-23 -7 -23 -8 -3 -9 12 -1 25 4 28 9 3 6 5 10 3 9 -2 -1
-14 -5 -28 -9z"/>
<path d="M952 4395 c0 -16 2 -22 5 -12 2 9 2 23 0 30 -3 6 -5 -1 -5 -18z"/>
<path d="M812 4260 c0 -14 2 -19 5 -12 2 6 2 18 0 25 -3 6 -5 1 -5 -13z"/>
<path d="M722 4125 c0 -16 2 -22 5 -12 2 9 2 23 0 30 -3 6 -5 -1 -5 -18z"/>
<path d="M680 4120 c0 -11 4 -20 9 -20 5 0 7 9 4 20 -3 11 -7 20 -9 20 -2 0
-4 -9 -4 -20z"/>
<path d="M560 3973 c0 -4 5 -15 10 -23 8 -13 10 -13 10 2 0 9 -4 20 -10 23 -5
3 -10 3 -10 -2z"/>
<path d="M491 3844 c0 -11 3 -14 6 -6 3 7 2 16 -1 19 -3 4 -6 -2 -5 -13z"/>
<path d="M450 3823 c0 -4 5 -15 10 -23 8 -13 10 -13 10 2 0 9 -4 20 -10 23 -5
3 -10 3 -10 -2z"/>
<path d="M461 3674 c0 -11 3 -14 6 -6 3 7 2 16 -1 19 -3 4 -6 -2 -5 -13z"/>
<path d="M360 3643 c0 -4 5 -15 10 -23 8 -13 10 -13 10 2 0 9 -4 20 -10 23 -5
3 -10 3 -10 -2z"/>
<path d="M411 3514 c0 -11 3 -14 6 -6 3 7 2 16 -1 19 -3 4 -6 -2 -5 -13z"/>
<path d="M310 3505 c0 -5 5 -17 10 -25 5 -8 10 -10 10 -5 0 6 -5 17 -10 25 -5
8 -10 11 -10 5z"/>
<path d="M382 3490 c0 -14 2 -19 5 -12 2 6 2 18 0 25 -3 6 -5 1 -5 -13z"/>
<path d="M280 3471 c0 -5 5 -13 10 -16 6 -3 10 -2 10 4 0 5 -4 13 -10 16 -5 3
-10 2 -10 -4z"/>
<path d="M4138 4413 c6 -2 18 -2 25 0 6 3 1 5 -13 5 -14 0 -19 -2 -12 -5z"/>
<path d="M4288 4283 c6 -2 18 -2 25 0 6 3 1 5 -13 5 -14 0 -19 -2 -12 -5z"/>
<path d="M4168 4273 c7 -3 16 -2 19 1 4 3 -2 6 -13 5 -11 0 -14 -3 -6 -6z"/>
<path d="M4418 4143 c6 -2 18 -2 25 0 6 3 1 5 -13 5 -14 0 -19 -2 -12 -5z"/>
<path d="M4538 3983 c7 -3 16 -2 19 1 4 3 -2 6 -13 5 -11 0 -14 -3 -6 -6z"/>
<path d="M4648 3823 c6 -2 18 -2 25 0 6 3 1 5 -13 5 -14 0 -19 -2 -12 -5z"/>
<path d="M4725 3660 c3 -5 16 -10 28 -9 21 0 21 1 2 9 -28 12 -37 12 -30 0z"/>
<path d="M4820 3480 c8 -5 20 -10 25 -10 6 0 3 5 -5 10 -8 5 -19 10 -25 10 -5
0 -3 -5 5 -10z"/>
<path d="M4750 3356 c0 -2 7 -7 16 -10 8 -3 12 -2 9 4 -6 10 -25 14 -25 6z"/>
<path d="M4880 3300 c8 -5 20 -10 25 -10 6 0 3 5 -5 10 -8 5 -19 10 -25 10 -5
0 -3 -5 5 -10z"/>
<path d="M220 3281 c0 -5 5 -13 10 -16 6 -3 10 -2 10 4 0 5 -4 13 -10 16 -5 3
-10 2 -10 -4z"/>
<path d="M4932 3115 c9 -10 21 -16 28 -13 7 2 -1 10 -16 17 -27 12 -28 11 -12
-4z"/>
<path d="M170 3085 c7 -9 15 -13 17 -11 7 7 -7 26 -19 26 -6 0 -6 -6 2 -15z"/>
<path d="M216 2957 c3 -10 9 -15 12 -12 3 3 0 11 -7 18 -10 9 -11 8 -5 -6z"/>
<path d="M4960 2931 c0 -9 30 -24 36 -18 2 1 -6 8 -16 15 -11 7 -20 8 -20 3z"/>
<path d="M135 2890 c10 -11 20 -18 23 -15 7 6 -18 35 -31 35 -5 0 -2 -9 8 -20z"/>
<path d="M4880 2816 c0 -2 8 -10 18 -17 15 -13 16 -12 3 4 -13 16 -21 21 -21
13z"/>
<path d="M4980 2736 c0 -2 7 -7 16 -10 8 -3 12 -2 9 4 -6 10 -25 14 -25 6z"/>
<path d="M110 2696 c0 -2 7 -7 16 -10 8 -3 12 -2 9 4 -6 10 -25 14 -25 6z"/>
<path d="M4990 2531 c0 -5 7 -12 16 -15 14 -5 15 -4 4 9 -14 17 -20 19 -20 6z"/>
<path d="M102 2474 c10 -10 20 -15 24 -12 3 4 -5 12 -18 18 -22 12 -22 12 -6
-6z"/>
<path d="M4980 2336 c0 -2 8 -10 18 -17 15 -13 16 -12 3 4 -13 16 -21 21 -21
13z"/>
<path d="M110 2285 c0 -2 10 -10 23 -16 20 -11 21 -11 8 4 -13 16 -31 23 -31
12z"/>
<path d="M225 2170 c10 -11 20 -20 23 -20 3 0 -3 9 -13 20 -10 11 -20 20 -23
20 -3 0 3 -9 13 -20z"/>
<path d="M140 2095 c0 -2 10 -10 23 -16 20 -11 21 -11 8 4 -13 16 -31 23 -31
12z"/>
<path d="M4880 2251 c0 -6 4 -13 10 -16 6 -3 7 1 4 9 -7 18 -14 21 -14 7z"/>
<path d="M4956 2136 c3 -8 13 -17 22 -21 13 -5 13 -2 -3 15 -21 24 -26 25 -19
6z"/>
<path d="M4910 1952 c0 -5 7 -15 15 -22 8 -7 15 -8 15 -2 0 5 -7 15 -15 22 -8
7 -15 8 -15 2z"/>
<path d="M190 1900 c20 -13 33 -13 25 0 -3 6 -14 10 -23 10 -15 0 -15 -2 -2
-10z"/>
<path d="M4860 1758 c0 -9 5 -20 10 -23 13 -8 13 5 0 25 -8 13 -10 13 -10 -2z"/>
<path d="M258 1713 c7 -3 16 -2 19 1 4 3 -2 6 -13 5 -11 0 -14 -3 -6 -6z"/>
<path d="M4790 1581 c0 -6 4 -13 10 -16 6 -3 7 1 4 9 -7 18 -14 21 -14 7z"/>
<path d="M4700 1420 c0 -8 5 -22 10 -30 9 -13 10 -13 10 0 0 8 -5 22 -10 30
-9 13 -10 13 -10 0z"/>
<path d="M330 1540 c0 -6 7 -10 15 -10 8 0 15 2 15 4 0 2 -7 6 -15 10 -8 3
-15 1 -15 -4z"/>
<path d="M4600 1253 c0 -4 5 -15 10 -23 8 -13 10 -13 10 2 0 9 -4 20 -10 23
-5 3 -10 3 -10 -2z"/>
<path d="M418 1363 c6 -2 18 -2 25 0 6 3 1 5 -13 5 -14 0 -19 -2 -12 -5z"/>
<path d="M560 1300 c8 -5 22 -9 30 -9 10 0 8 3 -5 9 -27 12 -43 12 -25 0z"/>
<path d="M518 1203 c6 -2 18 -2 25 0 6 3 1 5 -13 5 -14 0 -19 -2 -12 -5z"/>
<path d="M633 1043 c9 -2 23 -2 30 0 6 3 -1 5 -18 5 -16 0 -22 -2 -12 -5z"/>
<path d="M4490 1093 c0 -4 5 -15 10 -23 8 -13 10 -13 10 2 0 9 -4 20 -10 23
-5 3 -10 3 -10 -2z"/>
<path d="M4370 940 c0 -8 5 -22 10 -30 9 -13 10 -13 10 0 0 8 -5 22 -10 30 -9
13 -10 13 -10 0z"/>
<path d="M4242 790 c0 -14 2 -19 5 -12 2 6 2 18 0 25 -3 6 -5 1 -5 -13z"/>
<path d="M755 900 c-3 -5 1 -10 9 -10 8 0 18 5 21 10 3 6 -1 10 -9 10 -8 0
-18 -4 -21 -10z"/>
<path d="M4102 660 c0 -19 2 -27 5 -17 2 9 2 25 0 35 -3 9 -5 1 -5 -18z"/>
<path d="M908 763 c6 -2 18 -2 25 0 6 3 1 5 -13 5 -14 0 -19 -2 -12 -5z"/>
<path d="M3942 540 c0 -14 2 -19 5 -12 2 6 2 18 0 25 -3 6 -5 1 -5 -13z"/>
<path d="M1045 640 c-7 -12 2 -12 30 0 19 8 19 9 -2 9 -12 1 -25 -3 -28 -9z"/>
<path d="M3782 440 c0 -14 2 -19 5 -12 2 6 2 18 0 25 -3 6 -5 1 -5 -13z"/>
<path d="M1210 530 c-13 -9 -13 -10 0 -10 8 0 22 5 30 10 13 9 13 10 0 10 -8
0 -22 -5 -30 -10z"/>
<path d="M3612 350 c0 -14 2 -19 5 -12 2 6 2 18 0 25 -3 6 -5 1 -5 -13z"/>
<path d="M1370 430 c-13 -8 -13 -10 2 -10 9 0 20 5 23 10 8 13 -5 13 -25 0z"/>
<path d="M3437 293 c-4 -3 -7 -16 -6 -27 0 -19 1 -19 10 3 10 24 8 36 -4 24z"/>
<path d="M1545 340 c-3 -5 -2 -10 4 -10 5 0 13 5 16 10 3 6 2 10 -4 10 -5 0
-13 -4 -16 -10z"/>
<path d="M3251 223 c-1 -6 -4 -20 -7 -30 -5 -17 -5 -17 6 0 6 10 9 23 6 30 -3
9 -5 9 -5 0z"/>
<path d="M1838 323 c7 -3 16 -2 19 1 4 3 -2 6 -13 5 -11 0 -14 -3 -6 -6z"/>
<path d="M1719 263 c-13 -15 -12 -15 9 -4 23 12 28 21 13 21 -5 0 -15 -7 -22
-17z"/>
<path d="M3065 169 c-4 -6 -5 -12 -2 -15 2 -3 7 2 10 11 7 17 1 20 -8 4z"/>
<path d="M2015 270 c-3 -6 1 -7 9 -4 18 7 21 14 7 14 -6 0 -13 -4 -16 -10z"/>
<path d="M1910 210 c-9 -6 -10 -10 -3 -10 6 0 15 5 18 10 8 12 4 12 -15 0z"/>
<path d="M2871 132 c-17 -31 -13 -40 5 -14 9 13 14 26 11 29 -3 2 -10 -4 -16
-15z"/>
<path d="M2100 165 c-7 -8 -8 -15 -2 -15 5 0 15 7 22 15 7 8 8 15 2 15 -5 0
-15 -7 -22 -15z"/>
<path d="M2289 128 c-12 -23 -12 -23 10 -4 23 21 26 26 11 26 -5 0 -15 -10
-21 -22z"/>
<path d="M2680 115 c-7 -9 -10 -18 -7 -21 3 -3 10 4 17 15 13 25 8 27 -10 6z"/>
<path d="M2496 124 c-5 -14 -4 -15 9 -4 17 14 19 20 6 20 -5 0 -12 -7 -15 -16z"/>
</g>
</svg>
